<?xml version="1.0" encoding="utf-8"?>
<!-- Generator: Adobe Illustrator 23.0.5, SVG Export Plug-In . SVG Version: 6.00 Build 0)  -->
<svg version="1.1" id="Layer_1" xmlns="http://www.w3.org/2000/svg" xmlns:xlink="http://www.w3.org/1999/xlink" x="0px" y="0px"
	 viewBox="0 0 136.3 127.8" style="enable-background:new 0 0 136.3 127.8;" xml:space="preserve">
<style type="text/css">
	.st0{fill:#DDE8ED;}
	.st1{fill:#A4AFC1;}
	.st2{fill:#00AAE7;}
	.st3{fill:#FFFFFF;}
	.st4{fill:#007CBA;}
	.st5{fill:#D5DBE1;}
	.st6{fill:#004C97;}
</style>
<path class="st0" d="M26.6,18.8C21.3,44.6,4.2,59.6,1.7,72S0.8,112,58,123.9s72.9-21.5,75.7-35.2C147,24.6,36.1-26.9,26.6,18.8z"/>
<path class="st1" d="M107.1,29.2c-3.2,0-5.7-2.6-5.7-5.7s2.6-5.7,5.7-5.7s5.7,2.6,5.7,5.7S110.2,29.2,107.1,29.2z M107.1,21.5
	c-1,0-1.9,0.9-1.9,1.9s0.9,1.9,1.9,1.9s1.9-0.9,1.9-1.9S108.1,21.5,107.1,21.5z"/>
<path class="st2" d="M77.9,39.7l13-10.4c2.8-2.2,1.2-6.8-2.4-6.8H53.1c-3.6,0-5.2,4.5-2.4,6.8l13,10.4H77.9z"/>
<path class="st3" d="M63.2,39.7C50,47.4,39.4,69.5,39.4,85.4c0,11.4,5.7,22.9,19,22.9h25.7c13.3,0,18.1-11.4,18.1-22.9
	c0-16-10.6-38-23.8-45.7H63.2z"/>
<path class="st4" d="M61.6,22.6h-8.6c-3.6,0-5.2,4.5-2.4,6.8l13,10.4h8.6l-13-10.4C56.5,27.1,58.1,22.6,61.6,22.6L61.6,22.6z"/>
<path class="st5" d="M47.9,85.4c0-16,10.6-38,23.8-45.7h-8.6C50,47.4,39.4,69.5,39.4,85.4c0,11.4,5.7,22.9,19,22.9H67
	C53.6,108.3,47.9,96.9,47.9,85.4z"/>
<path class="st6" d="M62.2,88.7l11.9-26.1l5.2,2.4L67.4,91.1L62.2,88.7z"/>
<path class="st6" d="M63.2,71.1c-2.1,0-3.8-1.7-3.8-3.8s1.7-3.8,3.8-3.8c2.1,0,3.8,1.7,3.8,3.8S65.3,71.1,63.2,71.1z"/>
<path class="st6" d="M78.4,90.2c-2.1,0-3.8-1.7-3.8-3.8s1.7-3.8,3.8-3.8c2.1,0,3.8,1.7,3.8,3.8S80.5,90.2,78.4,90.2z"/>
<path class="st6" d="M79.7,41.9l-3.6-4.5l12.9-10.4c0.4-0.4,0.4-0.8,0.3-1.1c-0.1-0.3-0.3-0.6-0.9-0.6H53.1c-0.5,0-0.8,0.3-0.9,0.6
	c-0.1,0.3-0.1,0.7,0.3,1.1l13,10.4l-3.6,4.5L48.9,31.6c-2.2-1.8-3.1-4.7-2.1-7.4s3.4-4.5,6.3-4.5h35.4c2.9,0,5.3,1.8,6.3,4.5
	s0.1,5.6-2.1,7.4L79.7,41.9z"/>
<path class="st6" d="M47.9,36.8h45.7v5.7H47.9V36.8z"/>
<path class="st6" d="M84.1,111.1H58.4c-15.1,0-21.9-12.9-21.9-25.7c0-17.8,11.8-40.3,25.2-48.2l2.9,4.9C52.9,49,42.2,69.7,42.2,85.4
	c0,9.2,4.2,20,16.2,20h25.7c13.8,0,15.2-14,15.2-20C99.4,69.7,88.7,49,77,42.2l2.9-4.9c13.4,7.9,25.2,30.4,25.2,48.2
	C105.1,101.3,97.1,111.1,84.1,111.1z"/>
</svg>
