<?xml version="1.0" encoding="utf-8"?>
<!-- Generator: Adobe Illustrator 23.0.5, SVG Export Plug-In . SVG Version: 6.00 Build 0)  -->
<svg version="1.1" id="Layer_1" xmlns="http://www.w3.org/2000/svg" xmlns:xlink="http://www.w3.org/1999/xlink" x="0px" y="0px"
	 viewBox="0 0 200 124.2" style="enable-background:new 0 0 200 124.2;" xml:space="preserve">
<style type="text/css">
	.st0{fill:#00AAE7;}
	.st1{fill:#9BC9FF;}
	.st2{fill:#004C97;}
</style>
<g>
	<path class="st0" d="M136.3,96.9H4.3V83.7h132V96.9z"/>
	<path class="st0" d="M146.2,103.5c0,9.1,7.4,16.5,16.5,16.5s16.5-7.4,16.5-16.5S171.8,87,162.7,87S146.2,94.4,146.2,103.5z
		 M159.4,103.5c0-1.8,1.5-3.3,3.3-3.3s3.3,1.5,3.3,3.3c0,1.8-1.5,3.3-3.3,3.3S159.4,105.3,159.4,103.5z"/>
	<path class="st0" d="M67,103.5C67,94.4,59.6,87,50.5,87S34,94.4,34,103.5S41.4,120,50.5,120S67,112.6,67,103.5z M53.8,103.5
		c0,1.8-1.5,3.3-3.3,3.3s-3.3-1.5-3.3-3.3c0-1.8,1.5-3.3,3.3-3.3S53.8,101.6,53.8,103.5z"/>
	<circle class="st1" cx="162.7" cy="103.5" r="3.3"/>
	<circle class="st1" cx="50.5" cy="103.5" r="3.3"/>
	<path class="st0" d="M136.3,30.9v66h52.8V67.2h-39.6V30.9H136.3z"/>
	<circle class="st2" cx="162.7" cy="103.5" r="6.6"/>
	<circle class="st2" cx="50.5" cy="103.5" r="6.6"/>
	<path class="st2" d="M1,4.5v92.4c0,1.8,1.5,3.3,3.3,3.3h3.3v3.3c0,5.5,4.4,9.9,9.9,9.9h15.9c1.7,3,4.2,5.5,7.3,7.3
		c9.5,5.4,21.5,2.2,27-7.3h78c1.7,3,4.2,5.5,7.3,7.3c9.5,5.4,21.5,2.2,27-7.3h9.3c5.5,0,9.9-4.4,9.9-9.9v-6.6c0-1.8-1.5-3.3-3.3-3.3
		h-3.3V67.2c0-0.5-0.1-0.9-0.3-1.3v0l-16.5-36.3c-0.5-1.2-1.7-1.9-3-1.9h-33V4.5c0-1.8-1.5-3.3-3.3-3.3H4.3C2.5,1.2,1,2.6,1,4.5z
		 M133,80.4H7.6V7.8H133V80.4z M67.6,93.6c-1.5-2.6-3.7-4.9-6.2-6.6H133v6.6H67.6L67.6,93.6z M184,63.9h-31.2V34.2h17.7L184,63.9z
		 M185.8,93.6h-6c-1.7-3-4.2-5.5-7.3-7.3c-9.5-5.4-21.5-2.2-27,7.3h-6V34.2h6.6v33c0,1.8,1.5,3.3,3.3,3.3h36.3V93.6z M182.2,106.8
		c0.4-2.2,0.4-4.4,0-6.6h10.2v3.3c0,1.8-1.5,3.3-3.3,3.3H182.2z M149.5,103.5L149.5,103.5c0-7.3,5.9-13.2,13.2-13.2
		c7.3,0,13.2,5.9,13.2,13.2c0,7.3-5.9,13.2-13.2,13.2S149.5,110.8,149.5,103.5z M70,106.8c0.4-2.2,0.4-4.4,0-6.6h73.2
		c-0.4,2.2-0.4,4.4,0,6.6H70z M37.3,103.5c0-7.3,5.9-13.2,13.2-13.2s13.2,5.9,13.2,13.2c0,7.3-5.9,13.2-13.2,13.2
		S37.3,110.8,37.3,103.5z M14.2,100.2H31c-0.4,2.2-0.4,4.4,0,6.6H17.5c-1.8,0-3.3-1.5-3.3-3.3V100.2z M7.6,87h32
		c-2.5,1.7-4.7,4-6.2,6.6H7.6V87z"/>
</g>
<g>
	<path class="st2" d="M29.5,60.6c1.8,0,3.3-1.5,3.3-3.3v-9.9h6.6c1.8,0,3.3-1.5,3.3-3.3s-1.5-3.3-3.3-3.3h-6.6v-6.6h9.9
		c1.8,0,3.3-1.5,3.3-3.3c0-1.8-1.5-3.3-3.3-3.3H29.5c-1.8,0-3.3,1.5-3.3,3.3v26.4C26.2,59.1,27.6,60.6,29.5,60.6z"/>
	<path class="st2" d="M52.6,60.6c1.8,0,3.3-1.5,3.3-3.3v-7.7l7.3,9.7c1.1,1.5,3.2,1.8,4.6,0.7c1.5-1.1,1.8-3.2,0.7-4.6c0,0,0,0,0,0
		l-6.3-8.4c5.2-1.6,8.1-7.1,6.5-12.3c-1.3-4.1-5.1-7-9.5-7h-6.6c-1.8,0-3.3,1.5-3.3,3.3v26.4C49.3,59.1,50.7,60.6,52.6,60.6z
		 M62.5,37.5c0,1.8-1.5,3.3-3.3,3.3h-3.3v-6.6h3.3C61,34.2,62.5,35.6,62.5,37.5z"/>
	<path class="st2" d="M79,60.6h13.2c1.8,0,3.3-1.5,3.3-3.3c0-1.8-1.5-3.3-3.3-3.3h-9.9v-6.6h6.6c1.8,0,3.3-1.5,3.3-3.3
		s-1.5-3.3-3.3-3.3h-6.6v-6.6h9.9c1.8,0,3.3-1.5,3.3-3.3c0-1.8-1.5-3.3-3.3-3.3H79c-1.8,0-3.3,1.5-3.3,3.3v26.4
		C75.7,59.1,77.1,60.6,79,60.6z"/>
	<path class="st2" d="M102.1,60.6h13.2c1.8,0,3.3-1.5,3.3-3.3c0-1.8-1.5-3.3-3.3-3.3h-9.9v-6.6h6.6c1.8,0,3.3-1.5,3.3-3.3
		s-1.5-3.3-3.3-3.3h-6.6v-6.6h9.9c1.8,0,3.3-1.5,3.3-3.3c0-1.8-1.5-3.3-3.3-3.3h-13.2c-1.8,0-3.3,1.5-3.3,3.3v26.4
		C98.8,59.1,100.2,60.6,102.1,60.6z"/>
</g>
</svg>
