<?xml version="1.0" encoding="utf-8"?>
<!-- Generator: Adobe Illustrator 23.0.5, SVG Export Plug-In . SVG Version: 6.00 Build 0)  -->
<svg version="1.1" id="Layer_1" xmlns="http://www.w3.org/2000/svg" xmlns:xlink="http://www.w3.org/1999/xlink" x="0px" y="0px"
	 viewBox="0 0 200 200" style="enable-background:new 0 0 200 200;" xml:space="preserve">
<style type="text/css">
	.st0{fill:#0D4E96;}
	.st1{fill:#1AA9E1;}
	.st2{fill:#FFFFFF;}
</style>
<path class="st0" d="M47.9,21.2c2.6,0.1,4.3,0.2,6.1,0.3c3.8,0.2,6.8-1.2,8.9-4.5c1.8-3,3.8-5.9,5.8-8.8C73,1.7,79.2,0.1,86.1,3.7
	c3.1,1.6,6.2,3.3,9.2,5.2c3.4,2.1,6.6,2,9.9-0.1c2.9-1.8,5.8-3.4,8.8-5c7.1-3.8,13.5-2.2,17.9,4.4c10.3,15.6,6.3,13.1,24.3,12.9
	c7.8-0.1,12.3,3.6,13.9,11.3c0.3,1.3,0.5,2.6,0.4,3.9c-0.7,9.4,3.1,15,12.2,18.6c11.5,4.5,13.2,10.4,8.4,22
	c-0.4,1.1-0.8,2.2-1.4,3.2c-3,5.5-2.8,10.6,1.7,15.3c1.6,1.7,2.8,3.7,4.2,5.7c4.9,7.1,4.1,13.4-2.5,19c-2.2,1.9-4.4,3.9-6.7,5.6
	c-3.9,2.9-5,6.6-4.1,11.2c0.7,3.4,1.3,6.9,1.5,10.4c0.4,7.2-3.3,11.9-10.3,13.6c-3,0.7-6,1.5-9,1.9c-4.7,0.7-7.6,3.2-8.9,7.9
	c-0.9,3.2-2.1,6.4-3.4,9.5c-2.7,6.8-8.5,9.7-15.5,7.9c-3.5-0.9-7.1-1.8-10.6-2.9c-3.8-1.2-6.8,0-9.6,2.7c-2.6,2.6-5.3,5.1-8,7.5
	c-5.2,4.5-11.6,4.5-16.7-0.1c-2.7-2.4-5.4-4.9-8-7.5c-2.9-2.8-6-3.8-10-2.5c-3.7,1.2-7.6,2.2-11.5,3c-6.2,1.2-11.4-1.6-13.8-7.4
	c-1.4-3.4-2.6-6.8-3.6-10.3c-1.2-4.5-4.1-6.9-8.5-7.8c-3.2-0.6-6.3-1.2-9.5-1.9c-6.6-1.5-10.6-6.5-10.3-13.3c0.2-3.3,0.6-6.7,1.3-10
	c1.3-5.5-0.2-9.7-4.9-12.9c-2.3-1.6-4.4-3.5-6.4-5.3c-5.5-4.8-6.4-11.2-2.4-17.3c1.9-2.9,4-5.8,6.2-8.5c2.7-3.3,3.1-6.8,1.4-10.7
	C10.5,80,9.3,77,8.1,74.1c-3-7.3-0.7-13.8,6.2-17.5c2.8-1.5,5.6-3.2,8.6-4.4c4.4-1.7,6.3-4.9,6.6-9.4c0.2-2.9,0.5-5.8,0.8-8.7
	c1-8.9,5.6-13,14.4-12.9C46.1,21.2,47.4,21.2,47.9,21.2z M99,163.6c35,0.4,64-27.4,64.5-61.8C164,66.6,136.3,37.4,102,37
	c-36.2-0.4-64.7,27-65.1,62.9C36.5,135.5,66,163.4,99,163.6z"/>
<circle class="st1" cx="100.1" cy="100.5" r="69.3"/>
<path class="st2" d="M90.7,112.2C103,97.9,114.9,84,126.8,70.2c5.3-6.1,9.8-5.9,14.6,0.7c2,2.9,0.3,4.9-1.2,7.1
	c-10.2,14.5-20.4,28.9-30.6,43.4c-4.4,6.2-8.8,12.4-13.3,18.5c-2.5,3.4-4.8,3.6-7.5,0.5c-9.5-11.1-18.9-22.3-28.2-33.6
	c-3.7-4.5-3.2-7.2,1.2-11.3c3.8-3.6,6.2-3.6,10.6,0.3C78.4,101,84.3,106.5,90.7,112.2z"/>
</svg>
