<?xml version="1.0" encoding="utf-8"?>
<!-- Generator: Adobe Illustrator 23.0.5, SVG Export Plug-In . SVG Version: 6.00 Build 0)  -->
<svg version="1.1" id="Layer_1" xmlns="http://www.w3.org/2000/svg" xmlns:xlink="http://www.w3.org/1999/xlink" x="0px" y="0px"
	 viewBox="0 0 141.8 127.8" style="enable-background:new 0 0 141.8 127.8;" xml:space="preserve">
<style type="text/css">
	.st0{fill:#DDE8ED;}
	.st1{fill:#1EA9E1;}
	.st2{fill:#077DBB;}
	.st3{fill:#FFFFFF;}
	.st4{fill:#D5DBE1;}
	.st5{fill:#A5AFC1;}
	.st6{fill:#0C4E97;}
</style>
<g>
	<g>
		<path class="st0" d="M136.5,73.5c-14.6-22.6-12.8-45.7-19.9-56.6c-7-10.9-28-29.8-78.2,2.5S0.9,87.3,8.6,99.2
			C44.7,155.4,162.3,113.6,136.5,73.5L136.5,73.5z"/>
	</g>
</g>
<g id="color_3_">
	<g>
		<circle class="st1" cx="72.4" cy="39.1" r="16.5"/>
	</g>
	<g>
		<path class="st2" d="M64.7,39.1c0-7.6,5.2-13.9,12.2-15.9c-1.4-0.4-2.9-0.7-4.4-0.7c-9.1,0-16.5,7.4-16.5,16.5s7.4,16.5,16.5,16.5
			c1.5,0,3-0.3,4.4-0.7C69.8,53,64.7,46.7,64.7,39.1z"/>
	</g>
	<g>
		<circle class="st3" cx="91.9" cy="58.5" r="16.5"/>
	</g>
	<g>
		<path class="st4" d="M84.1,58.5c0-7.6,5.2-13.9,12.2-15.9c-1.4-0.4-2.9-0.7-4.4-0.7c-9.1,0-16.5,7.4-16.5,16.5S82.8,75,91.9,75
			c1.5,0,3-0.3,4.4-0.7C89.3,72.4,84.1,66.1,84.1,58.5z"/>
	</g>
	<g>
		<path class="st1" d="M43.3,73.5l-0.9,3.3l-5.7,21.1l-1.2,4.3H24.8V69.2C37.6,69.2,43.3,73.5,43.3,73.5L43.3,73.5z"/>
	</g>
	<g>
		<path class="st2" d="M24.8,69.2v33.1h8.7V70C31.1,69.5,28.2,69.2,24.8,69.2L24.8,69.2z"/>
	</g>
	<g>
		<path class="st3" d="M112.3,94.5c0,0-28.2,15.6-39.9,15.6c-9.3,0-28.3-8.6-35.8-12.1l5.7-21.1l37.4,7.7c3.6,0.7,6.2,3.9,6.2,7.6
			v1.7c5.6-1.7,11.5-4.2,16.5-4.2C110.4,89.6,112.3,94.5,112.3,94.5L112.3,94.5z"/>
	</g>
	<g>
		<g>
			<path class="st4" d="M45.4,99.9l5.7-21.1l30.1,6.2c-0.5-0.2-0.9-0.3-1.4-0.4l-37.4-7.7l-5.7,21.1c7,3.3,24,10.9,33.7,12
				C61.2,107.1,50.6,102.3,45.4,99.9L45.4,99.9z"/>
		</g>
	</g>
	<g>
		<g>
			<path class="st5" d="M12.4,43.6l5.5-5.5l2.7,2.7l-5.5,5.5L12.4,43.6z"/>
		</g>
		<g>
			<path class="st5" d="M28.2,27.8l5.5-5.5l2.7,2.7L31,30.6L28.2,27.8z"/>
		</g>
		<g>
			<path class="st5" d="M28.2,41.5l2.7-2.7l5.5,5.5L33.7,47L28.2,41.5z"/>
		</g>
		<g>
			<path class="st5" d="M12.4,25.7l2.7-2.7l5.5,5.5l-2.7,2.7L12.4,25.7z"/>
		</g>
	</g>
	<g>
		<path class="st5" d="M115.2,122.7c-3.2,0-5.8-2.6-5.8-5.8c0-3.2,2.6-5.8,5.8-5.8s5.8,2.6,5.8,5.8
			C121.1,120,118.4,122.7,115.2,122.7z M115.2,114.9c-1.1,0-1.9,0.9-1.9,1.9s0.9,1.9,1.9,1.9s1.9-0.9,1.9-1.9
			S116.3,114.9,115.2,114.9z"/>
	</g>
</g>
<g id="line_3_">
	<g>
		<path class="st6" d="M91.9,77.9c-10.7,0-19.4-8.7-19.4-19.4s8.7-19.4,19.4-19.4s19.4,8.7,19.4,19.4S102.6,77.9,91.9,77.9z
			 M91.9,44.9c-7.5,0-13.6,6.1-13.6,13.6s6.1,13.6,13.6,13.6s13.6-6.1,13.6-13.6S99.4,44.9,91.9,44.9z"/>
	</g>
	<g>
		<path class="st6" d="M63.8,56.5C57.1,53.2,53,46.5,53,39.1c0-10.7,8.7-19.4,19.4-19.4c7.4,0,14.1,4.1,17.4,10.8L84.6,33
			c-2.3-4.7-7-7.6-12.2-7.6c-7.5,0-13.6,6.1-13.6,13.6c0,5.2,2.9,9.9,7.6,12.2L63.8,56.5z"/>
	</g>
	<g>
		<path class="st6" d="M35.5,105.2H24.8c-1.6,0-2.9-1.3-2.9-2.9V69.2c0-1.6,1.3-2.9,2.9-2.9c13.6,0,20,4.7,20.2,4.9
			c0.9,0.7,1.4,1.9,1,3.1L38.3,103C38,104.3,36.8,105.2,35.5,105.2z M27.7,99.3h5.5l6.6-24.4c-2-1-6-2.4-12.1-2.7L27.7,99.3z"/>
	</g>
	<g>
		<path class="st6" d="M72.4,112.9c-9.4,0-27.3-7.8-37.1-12.4l2.5-5.3c16,7.5,28.6,11.9,34.6,11.9c7.9,0,25.8-8.5,35.2-13.4
			c-1.1-0.6-2.7-1.2-5-1.2c-3.4,0-7.6,1.4-11.7,2.8c-4.5,1.5-9.2,3.1-13.6,3.1c-8.2,0-19-3.9-19.5-4.1l2-5.5
			c0.1,0,10.3,3.7,17.5,3.7c3.4,0,7.6-1.4,11.7-2.8c4.5-1.5,9.2-3.1,13.6-3.1c9.6,0,12.3,6.4,12.4,6.7c0.5,1.4,0,2.9-1.3,3.6
			C112.5,97.7,84.7,112.9,72.4,112.9z"/>
	</g>
	<g>
		<path class="st6" d="M89,93.8h-5.8v-1.7c0-2.3-1.6-4.3-3.9-4.8l-37.5-7.7l1.2-5.7l37.5,7.7c5,1,8.6,5.4,8.6,10.5L89,93.8z"/>
	</g>
</g>
</svg>
