<?xml version="1.0" encoding="utf-8"?>
<!-- Generator: Adobe Illustrator 23.0.5, SVG Export Plug-In . SVG Version: 6.00 Build 0)  -->
<svg version="1.1" id="Layer_1" xmlns="http://www.w3.org/2000/svg" xmlns:xlink="http://www.w3.org/1999/xlink" x="0px" y="0px"
	 viewBox="0 0 125 130.6" style="enable-background:new 0 0 125 130.6;" xml:space="preserve">
<style type="text/css">
	.st0{fill:#DDE8ED;}
	.st1{fill:#A4AFC1;}
	.st2{fill:#00AAE7;}
	.st3{fill:#007CBA;}
	.st4{fill:#F3F3F1;}
	.st5{fill:#FFFFFF;}
	.st6{fill:#D5DBE1;}
	.st7{fill:#004C97;}
</style>
<g>
	<g>
		<path class="st0" d="M107.3,26.5C82.3,20.8,68.2,3.9,56.2,1.1S17.3-0.6,4.6,54.7s19.3,71.2,32.5,74.3
			C98.9,143.3,151.4,36.7,107.3,26.5z"/>
	</g>
</g>
<g id="color_1_">
	<g>
		<g>
			<path class="st1" d="M28.9,106.5h7.4v3.7h-7.4V106.5z"/>
		</g>
		<g>
			<path class="st1" d="M7.6,106.5H15v3.7H7.6V106.5z"/>
		</g>
		<g>
			<path class="st1" d="M20.5,93.6h3.7v7.4h-3.7V93.6z"/>
		</g>
		<g>
			<path class="st1" d="M20.5,114.8h3.7v7.4h-3.7V114.8z"/>
		</g>
	</g>
	<g>
		<path class="st2" d="M54.5,80.6h-28c-4.1,0-7.4-3.3-7.4-7.4V34.4c0-4.1,3.3-7.4,7.4-7.4H95c4.1,0,7.4,3.3,7.4,7.4v25v13.9
			c0,4.1-3.3,7.4-7.4,7.4H54.5z"/>
	</g>
	<g>
		<path class="st3" d="M27.5,73.2V34.4c0-4.1,3.3-7.4,7.4-7.4h-8.3c-4.1,0-7.4,3.3-7.4,7.4v38.8c0,4.1,3.3,7.4,7.4,7.4h8.3
			C30.8,80.6,27.5,77.3,27.5,73.2z"/>
	</g>
	<g>
		<circle class="st4" cx="60.8" cy="53.8" r="8.3"/>
	</g>
	<g>
		<circle class="st5" cx="81.1" cy="88.9" r="21.3"/>
	</g>
	<g>
		<path class="st6" d="M68.2,88.9c0-10.3,7.4-18.9,17.1-20.9c-1.3-0.3-2.7-0.4-4.2-0.4c-11.7,0-21.3,9.5-21.3,21.3
			s9.5,21.3,21.3,21.3c1.4,0,2.8-0.1,4.2-0.4C75.5,107.9,68.2,99.3,68.2,88.9z"/>
	</g>
</g>
<g id="line_1_">
	<g>
		<path class="st7" d="M81.1,113c-13.3,0-24-10.8-24-24s10.8-24,24-24s24,10.8,24,24S94.4,113,81.1,113z M81.1,70.4
			c-10.2,0-18.5,8.3-18.5,18.5s8.3,18.5,18.5,18.5s18.5-8.3,18.5-18.5S91.3,70.4,81.1,70.4z"/>
	</g>
	<g>
		<path class="st7" d="M78.4,78.8h5.5v20.3h-5.5V78.8z"/>
	</g>
	<g>
		<path class="st7" d="M71,86.2h20.3v5.5H71V86.2z"/>
	</g>
	<g>
		<path class="st7" d="M50.8,83.4H26.6c-5.6,0-10.2-4.6-10.2-10.2V34.4c0-5.6,4.6-10.2,10.2-10.2H95c5.6,0,10.2,4.6,10.2,10.2v31.4
			h-5.5V34.4c0-2.5-2.1-4.6-4.6-4.6H26.6c-2.5,0-4.6,2.1-4.6,4.6v38.8c0,2.5,2.1,4.6,4.6,4.6h24.3L50.8,83.4z"/>
	</g>
	<g>
		<path class="st7" d="M60.8,64.9c-6.1,0-11.1-5-11.1-11.1s5-11.1,11.1-11.1s11.1,5,11.1,11.1S66.9,64.9,60.8,64.9z M60.8,48.2
			c-3.1,0-5.5,2.5-5.5,5.5c0,3.1,2.5,5.5,5.5,5.5s5.5-2.5,5.5-5.5C66.3,50.7,63.8,48.2,60.8,48.2z"/>
	</g>
	<g>
		<path class="st7" d="M30.3,35.3h9.2v5.5h-9.2V35.3z"/>
	</g>
</g>
</svg>
