<?xml version="1.0" encoding="utf-8"?>
<!-- Generator: Adobe Illustrator 23.0.5, SVG Export Plug-In . SVG Version: 6.00 Build 0)  -->
<svg version="1.1" id="PetPro_Logo" xmlns="http://www.w3.org/2000/svg" xmlns:xlink="http://www.w3.org/1999/xlink" x="0px"
	 y="0px" viewBox="0 0 825.7 258.9" style="enable-background:new 0 0 825.7 258.9;" xml:space="preserve">
<style type="text/css">
	.st0{fill:#EA0029;}
	.st1{fill:#2374BB;}
</style>
<g>
	<g>
		<path class="st0" d="M167.4,75c-26.9,0-49.2,19.8-53.3,45.5C110.1,94.8,87.7,75,60.8,75c-29.8,0-54,24.2-54,54v70.5
			c2.9-0.1,30.3-1.4,30.3-21.9l0,0c7.2,3.5,15.2,5.5,23.7,5.5c25.7,0,47.2-18,52.6-42.1V177c0,21,28.4,22.4,30.3,22.4v-21.9
			c7.1,3.5,15.2,5.5,23.7,5.5c29.8,0,54-24.2,54-54C221.3,99.2,197.1,75,167.4,75z M60.7,152.7C47.7,152.7,37,142,37,129
			s10.6-23.7,23.7-23.7s23.7,10.6,23.7,23.7S73.8,152.7,60.7,152.7z M167.4,152.7c-13.1,0-23.7-10.6-23.7-23.7s10.6-23.7,23.7-23.7
			S191,115.9,191,129S180.4,152.7,167.4,152.7z"/>
		<path class="st0" d="M131.9,22c-1.9,5-1,11.3-0.5,14.2l-0.2,0.3c-1.5,4.1-2.4,8.7-2.4,13.3c0,0.6,0,1.2,0,1.9
			c-0.9,8.2,2.5,19,3.7,22.4c10.2-6.5,22.3-10.3,35.1-10.3c7.9,0,15.6,1.4,22.7,4c0.3-1,0.5-2.2,0.7-3.4c1.8-4.4,2.8-9.4,2.8-14.5
			c0-6.5-1.5-12.5-4.2-17.7c0-1.9-0.1-3.9-0.3-6.3c4.3,0.2,24.6-5.3,13-7.3l0,0c-16-3-16.2-13.2-16.2-13.2c-0.2-0.8-0.4-1.5-0.7-2.3
			c-0.6-1.3-1.4-1.6-2.3-1.5c-1.5,0.1-2.2,1-2.2,1c-2.2,3-4.7,7.1-7.5,14.1c-3.7-1.6-7.8-2.6-12.2-2.6c-4.6,0-9.1,1.1-13.1,3.1
			c6.1-10.3-1.4-7.4-7.1-13.1c-5-5.2-9.8-5-18.7,9.2c-8.1,13-13.6,10-13.6,10c-2.3-0.1-0.8,2.1-0.8,2.1
			C114.9,38.3,131.9,22,131.9,22z"/>
		<path class="st0" d="M46.9,65.2c4.4-0.9,9.1-1.4,13.9-1.4c12.4,0,23.9,3.4,33.7,9.4c6-5.6,9.8-13.5,9.8-22.4
			c0-5.8-1.6-11.2-4.4-15.9l0,0c0,0,4.5-9.1,0.1-21c-0.1-0.3-0.4-0.1-0.4-0.1c-1.5,0.9-8.3,4.8-12.7,9.4c-4-1.9-8.4-3-13.1-3
			c-4.3,0-8.4,0.9-12.2,2.6c-3.9-4.1-9.1-7.8-10.5-8.9c-0.1-0.1-0.4-0.1-0.5,0.2c-2.9,7.8-1.9,14.3-0.8,17.9
			c-4,5.2-6.4,11.6-6.4,18.6C43.2,55.9,44.6,60.9,46.9,65.2z"/>
	</g>
</g>
<g>
	<path class="st1" d="M766.6,75.3c-29.3,0-53.1,23.8-53.1,53.1s23.8,53.1,53.1,53.1s53.1-23.8,53.1-53.1
		C819.7,99.1,795.9,75.3,766.6,75.3z M800.6,128.4c0,18.8-15.3,34-34,34s-34-15.3-34-34s15.3-34,34-34
		C785.4,94.4,800.6,109.6,800.6,128.4z"/>
	<path class="st1" d="M318.9,75.3c-29.3,0-53.1,23.8-53.1,53.1v63.8l1.6-0.1c15.5-1,17.3-9.8,17.5-12.4v-10.5
		c9.5,8,21.5,12.4,34,12.4c29.3,0,53.1-23.8,53.1-53.1C372.1,99.1,348.2,75.3,318.9,75.3z M353,128.4c0,18.8-15.3,34-34,34
		c-18.8,0-34-15.3-34-34s15.3-34,34-34C337.7,94.4,353,109.6,353,128.4z"/>
	<path class="st1" d="M719.3,94.4V75.3h-1.5c-29.3,0-53.1,23.8-53.1,53.1v52l1.6-0.1c15.5-1.1,17.3-9.8,17.5-12.6v-39.3
		c0-18.8,15.3-34,34-34L719.3,94.4L719.3,94.4z"/>
	<path class="st1" d="M508.7,61.7h-19.1v66.7c0,29.3,23.8,53.1,53.1,53.1h1.5v-19.1h-1.5c-18.8,0-34-15.3-34-34V96.9H532h0.2
		c3.2-0.4,10.5-2.7,11.8-16.1h0.2v-3h-35.5V61.7z"/>
	<path class="st1" d="M430.5,75.3c-29.3,0-53.1,23.8-53.1,53.1s23.8,53.1,53.1,53.1c18,0,34.6-9,44.5-24.1l0.8-1.2l-15.4-11.6
		l-0.9,1.4c-6.3,10.3-17.1,16.4-29,16.4c-18.8,0-34-15.3-34-34s15.3-34,34-34c15.4,0,28.9,10.5,32.9,25.3h-36.6h-1.6v0.1
		c-3.1,0.4-10.4,2.7-11.8,15.8v3.2h69.2l0.2-1.2c0.5-3,0.8-6.1,0.8-9.1C483.6,99.1,459.8,75.3,430.5,75.3z"/>
	<path class="st1" d="M605.6,75.3c-29.3,0-53.1,23.8-53.1,53.1V180v0.1c0.3,3.2,2.5,10.7,16.1,12v0.1h3v-23.1
		c9.5,8,21.5,12.4,34,12.4c29.3,0,53.1-23.8,53.1-53.1C658.7,99.1,634.9,75.3,605.6,75.3z M605.6,162.4c-18.8,0-34-15.3-34-34
		s15.3-34,34-34s34,15.3,34,34S624.3,162.4,605.6,162.4z"/>
</g>
</svg>
