<?xml version="1.0" encoding="utf-8"?>
<!-- Generator: Adobe Illustrator 23.0.5, SVG Export Plug-In . SVG Version: 6.00 Build 0)  -->
<svg version="1.1" id="Layer_1" xmlns="http://www.w3.org/2000/svg" xmlns:xlink="http://www.w3.org/1999/xlink" x="0px" y="0px"
	 viewBox="0 0 175.3 101.2" style="enable-background:new 0 0 175.3 101.2;" xml:space="preserve">
<style type="text/css">
	.st0{fill:#00AAE7;}
	.st1{fill:#57A4FF;}
	.st2{fill:#004FAC;}
	.st3{fill:#004C97;}
	.st4{fill:#FFFFFF;}
</style>
<g id="Credit_card">
	<path class="st0" d="M3.4,18.2h147.1V33H3.4V18.2z"/>
	<path class="st1" d="M53.4,59.4c0,6.5-5.3,11.8-11.8,11.8c-2.7,0-5.3-0.9-7.4-2.6c-5.1,4-12.5,3.2-16.6-1.8
		c-4-5.1-3.2-12.5,1.8-16.6c4.3-3.5,10.4-3.5,14.7,0c5.1-4,12.5-3.2,16.6,1.8C52.5,54.2,53.4,56.8,53.4,59.4L53.4,59.4z"/>
	<path class="st0" d="M38.7,59.4c0,6.5-5.3,11.8-11.8,11.8s-11.8-5.3-11.8-11.8c0-6.5,5.3-11.8,11.8-11.8c2.7,0,5.3,0.9,7.4,2.6
		C37.1,52.5,38.7,55.9,38.7,59.4z"/>
	<path class="st0" d="M53.4,59.4c0,6.5-5.3,11.8-11.8,11.8s-11.8-5.3-11.8-11.8s5.3-11.8,11.8-11.8S53.4,52.9,53.4,59.4z"/>
	<g>
		<path class="st2" d="M41.7,44.7c-2.6,0-5.1,0.7-7.4,2c-7-4.1-16-1.7-20.1,5.4s-1.7,16,5.4,20.1c4.6,2.6,10.2,2.6,14.7,0
			c7,4.1,16,1.7,20.1-5.4s1.7-16-5.4-20.1C46.8,45.4,44.2,44.7,41.7,44.7L41.7,44.7z M34.3,64.3c-1.9-2.9-1.9-6.8,0-9.7
			C36.2,57.5,36.2,61.3,34.3,64.3z M18.1,59.4c0-4.9,3.9-8.8,8.8-8.8c0.9,0,1.8,0.1,2.6,0.4c-3.5,5-3.5,11.8,0,16.8
			c-4.6,1.5-9.6-1.1-11.1-5.8C18.3,61.2,18.1,60.4,18.1,59.4z M41.7,68.3c-0.9,0-1.8-0.1-2.6-0.4c3.5-5,3.5-11.8,0-16.8
			c4.6-1.5,9.6,1.1,11.1,5.8c1.5,4.6-1.1,9.6-5.8,11.1C43.5,68.1,42.6,68.3,41.7,68.3z"/>
		<path class="st2" d="M94.6,47.7H65.2c-1.6,0-2.9,1.3-2.9,2.9s1.3,2.9,2.9,2.9h29.4c1.6,0,2.9-1.3,2.9-2.9S96.2,47.7,94.6,47.7z"/>
		<path class="st2" d="M94.6,56.5H65.2c-1.6,0-2.9,1.3-2.9,2.9s1.3,2.9,2.9,2.9h29.4c1.6,0,2.9-1.3,2.9-2.9S96.2,56.5,94.6,56.5z"/>
		<path class="st2" d="M77,65.3H65.2c-1.6,0-2.9,1.3-2.9,2.9s1.3,2.9,2.9,2.9H77c1.6,0,2.9-1.3,2.9-2.9S78.6,65.3,77,65.3z"/>
		<path class="st2" d="M88.7,65.3h-2.9c-1.6,0-2.9,1.3-2.9,2.9s1.3,2.9,2.9,2.9h2.9c1.6,0,2.9-1.3,2.9-2.9S90.3,65.3,88.7,65.3z"/>
	</g>
</g>
<g>
	<g>
		<path class="st3" d="M153.5,43.1v-6.3c-0.1,0-0.1,0-0.3,0c-2,0-3.9,0.3-5.6,0.9v6.8c1.7-0.9,3.6-1.4,5.6-1.4
			C153.3,43.1,153.4,43.1,153.5,43.1z"/>
		<path class="st3" d="M129.9,88.9H15.2c-4.9,0-8.8-4-8.8-8.8V35.9h141.1c1.8-0.6,3.8-0.9,5.8-0.9l0,0c0.1,0,0.1,0,0.3,0V15.3
			c0-8.1-6.6-14.7-14.7-14.7H15.2C7,0.6,0.5,7.2,0.5,15.3V80c0,8.1,6.6,14.7,14.7,14.7h114.7l5.9,0l7.6-5.8
			C141.4,89,129.9,88.9,129.9,88.9z M15.2,6.5h123.6c4.9,0,8.8,4,8.8,8.8H6.3C6.3,10.4,10.3,6.5,15.2,6.5z M6.3,21.2h141.2V30H6.3
			V21.2z"/>
	</g>
	<path class="st3" d="M170.7,67.3c0.2,0,0.4-0.2,0.4-0.4V54.8c0-9.9-8.1-17.9-17.9-17.9c-9.9,0-17.9,8.1-17.9,17.9v12.1
		c0,0.2,0.2,0.4,0.4,0.4h5.4c0.2,0,0.4-0.2,0.4-0.4V54.7c0-6.4,5.3-11.7,11.7-11.7c6.4,0,11.7,5.3,11.7,11.7v12.1
		c0,0.2,0.2,0.4,0.4,0.4L170.7,67.3L170.7,67.3z"/>
	<g>
		<path class="st0" d="M170.7,65.6h-35c-2.2,0-4,1.8-4,4v24.2c0,3.7,3,6.7,6.7,6.7H168c3.7,0,6.7-3,6.7-6.7V69.6
			C174.8,67.4,173,65.6,170.7,65.6z"/>
		<path class="st3" d="M170,70.4v23.5c0,1.1-0.9,1.9-1.9,1.9h-29.6c-1.1,0-1.9-0.9-1.9-1.9V70.4H170 M170.7,65.6h-35
			c-2.2,0-4,1.8-4,4v24.2c0,3.7,3,6.7,6.7,6.7H168c3.7,0,6.7-3,6.7-6.7V69.6C174.8,67.4,173,65.6,170.7,65.6L170.7,65.6z"/>
	</g>
	<path class="st4" d="M156.8,83c1.1-1,1.8-2.5,1.8-4c0-3-2.4-5.4-5.4-5.4c-2.9,0-5.4,2.4-5.4,5.4c0,1.5,0.6,2.9,1.8,4l-1.7,5
		c-0.2,0.7,0.1,1.5,0.8,1.7c0.1,0,0.3,0.1,0.4,0.1h8.1c0.7,0,1.4-0.6,1.4-1.4c0-0.1,0-0.3-0.1-0.4L156.8,83z"/>
</g>
</svg>
