<svg id="_2" data-name="2" xmlns="http://www.w3.org/2000/svg" width="74" height="40" viewBox="0 0 74 40">
  <rect id="Rectangle_3842" data-name="Rectangle 3842" width="74" height="40" rx="5" fill="#efefef"/>
  <g id="visa" transform="translate(17 14)">
    <path id="Shape" d="M278.2,150.575l2.064-12.11h3.3l-2.065,12.11Z" transform="translate(-263.785 -138.218)" fill="#b7b7b7"/>
    <path id="path13" d="M374.1,134.974a8.524,8.524,0,0,0-2.958-.509c-3.262,0-5.559,1.642-5.579,4-.018,1.74,1.64,2.711,2.892,3.29,1.285.594,1.717.972,1.711,1.5-.008.812-1.026,1.183-1.975,1.183a6.921,6.921,0,0,1-3.107-.636l-.425-.193-.463,2.711a10.449,10.449,0,0,0,3.677.646c3.47,0,5.722-1.624,5.748-4.137.012-1.378-.867-2.426-2.771-3.29-1.154-.56-1.86-.934-1.853-1.5,0-.5.6-1.042,1.89-1.042a6.089,6.089,0,0,1,2.47.464l.3.14.447-2.625" transform="translate(-344.464 -134.465)" fill="#b7b7b7"/>
    <path id="Path" d="M522.381,138.464h-2.55a1.642,1.642,0,0,0-1.728,1l-4.9,11.1h3.466s.567-1.492.695-1.82l4.227.005c.1.424.4,1.815.4,1.815h3.063l-2.672-12.1Zm-4.047,7.82c.273-.7,1.315-3.385,1.315-3.385-.019.032.271-.7.438-1.156l.223,1.044s.632,2.891.764,3.5h-2.74Z" transform="translate(-484.249 -138.217)" fill="#b7b7b7"/>
    <path id="path16" d="M45.239,138.465l-.042.252a13.832,13.832,0,0,1,3.49,1.342l2.929,10.5,3.492,0,5.2-12.087h-3.5l-3.231,8.258-.344-1.678c-.016-.052-.034-.1-.052-.156l-1.123-5.4a1.382,1.382,0,0,0-1.5-1.022Z" transform="translate(-45.197 -138.218)" fill="#b7b7b7"/>
  </g>
</svg>
