<svg id="_3color" data-name="3color" xmlns="http://www.w3.org/2000/svg" width="83" height="40" viewBox="0 0 83 40">
  <rect id="Rectangle_3843" data-name="Rectangle 3843" width="83" height="40" rx="5" fill="#efefef"/>
  <g id="mastercard" transform="translate(25.486 7.982)">
    <path id="Path_18002" data-name="Path 18002" d="M161.789,369.88v-1.661a.967.967,0,0,0-1.024-1.052,1.094,1.094,0,0,0-.941.468.963.963,0,0,0-.886-.468.941.941,0,0,0-.8.388v-.334h-.526v2.658h.526v-1.521a.62.62,0,0,1,.664-.692c.388,0,.609.249.609.692v1.523h.526v-1.523a.62.62,0,0,1,.664-.692c.388,0,.609.249.609.692v1.523Zm8.637-2.63h-.969v-.8h-.525v.8h-.553v.468h.553v1.249c0,.609.221.969.886.969a1.548,1.548,0,0,0,.719-.194l-.166-.468a.911.911,0,0,1-.5.138.388.388,0,0,1-.415-.443V367.7h.969v-.443Zm4.928-.083a.828.828,0,0,0-.72.388v-.334h-.526v2.658h.526v-1.493c0-.443.221-.72.582-.72a1.626,1.626,0,0,1,.36.055l.166-.5A1.873,1.873,0,0,0,175.354,367.167Zm-7.447.277a1.9,1.9,0,0,0-1.079-.277c-.664,0-1.079.3-1.079.831,0,.443.3.692.886.775l.277.027c.3.055.5.166.5.3,0,.194-.221.334-.637.334a1.459,1.459,0,0,1-.886-.277l-.277.415a2.012,2.012,0,0,0,1.136.334c.775,0,1.19-.36,1.19-.858,0-.468-.334-.692-.914-.775l-.277-.027c-.249-.027-.468-.111-.468-.277,0-.194.221-.334.526-.334a1.993,1.993,0,0,1,.831.221Zm8.028,1.108a1.308,1.308,0,0,0,1.384,1.384,1.375,1.375,0,0,0,.941-.3l-.277-.415a1.119,1.119,0,0,1-.692.249.886.886,0,0,1,0-1.769,1.119,1.119,0,0,1,.692.249l.277-.415a1.378,1.378,0,0,0-.941-.3,1.252,1.252,0,0,0-1.384,1.329h0Zm-3.71-1.384a1.273,1.273,0,0,0-1.3,1.384,1.3,1.3,0,0,0,1.356,1.384,1.693,1.693,0,0,0,1.079-.36l-.277-.388a1.322,1.322,0,0,1-.775.277.776.776,0,0,1-.8-.692h1.966v-.221a1.247,1.247,0,0,0-1.246-1.384h0Zm-.027.5a.661.661,0,0,1,.692.664h-1.439A.75.75,0,0,1,172.2,367.665Zm-7.17.886v-1.329H164.5v.334a1.014,1.014,0,0,0-.858-.388,1.387,1.387,0,0,0,0,2.769,1.018,1.018,0,0,0,.858-.388v.334h.526Zm-2.132,0a.819.819,0,1,1,.831.886A.8.8,0,0,1,162.9,368.551Zm20.459-1.384a.828.828,0,0,0-.72.388v-.334h-.526v2.658h.525v-1.493c0-.443.221-.72.582-.72a1.625,1.625,0,0,1,.36.055l.166-.5a1.872,1.872,0,0,0-.388-.056Zm-2.049,1.384v-1.329h-.526v.334a1.014,1.014,0,0,0-.858-.388,1.387,1.387,0,0,0,0,2.769,1.017,1.017,0,0,0,.858-.388v.334h.526Zm-2.132,0a.819.819,0,1,1,.831.886A.8.8,0,0,1,179.175,368.551Zm7.475,0V366.17h-.526v1.384a1.014,1.014,0,0,0-.858-.388,1.387,1.387,0,0,0,0,2.769,1.017,1.017,0,0,0,.858-.388v.334h.526Zm-2.132,0a.819.819,0,1,1,.831.886.8.8,0,0,1-.831-.886Z" transform="translate(-156.163 -344.92)"/>
    <g id="Group_36802" data-name="Group 36802" transform="translate(-0.231 0.018)">
      <rect id="Rectangle_3841" data-name="Rectangle 3841" width="9.607" height="15.669" transform="translate(11.366 2.13)" fill="#ff5f00"/>
      <path id="Path_18003" data-name="Path 18003" d="M144.844,58.483a9.992,9.992,0,0,1,3.791-7.833,9.966,9.966,0,1,0,0,15.668,9.993,9.993,0,0,1-3.793-7.835Z" transform="translate(-132.509 -48.518)" fill="#eb001b"/>
      <path id="Path_18004" data-name="Path 18004" d="M390.369,58.5a9.956,9.956,0,0,1-16.109,7.835,9.988,9.988,0,0,0,0-15.669A9.956,9.956,0,0,1,390.369,58.5Z" transform="translate(-358.101 -48.539)" fill="#f79e1b"/>
    </g>
  </g>
</svg>
