<svg id="_4color" data-name="4color" xmlns="http://www.w3.org/2000/svg" width="83" height="40" viewBox="0 0 83 40">
  <rect id="Rectangle_3844" data-name="Rectangle 3844" width="83" height="40" rx="5" fill="#efefef"/>
  <g id="paypal" transform="translate(-36.951 -147.185)">
    <path id="Path_18005" data-name="Path 18005" d="M62.889,161.792a3.983,3.983,0,0,0-2.3-.607H56.925a.433.433,0,0,0-.481.435l-1.488,9.341a.306.306,0,0,0,.069.252.281.281,0,0,0,.229.114h1.74a.445.445,0,0,0,.5-.435l.412-2.518a.445.445,0,0,1,.16-.3.706.706,0,0,1,.343-.149,2.4,2.4,0,0,1,.389-.034q.183,0,.435.023t.32.023a4.2,4.2,0,0,0,3.091-1.11,4.138,4.138,0,0,0,1.122-3.079A2.207,2.207,0,0,0,62.889,161.792ZM61,164.6a1.3,1.3,0,0,1-.6,1.053,3.016,3.016,0,0,1-1.374.252l-.756.023.389-2.45a.274.274,0,0,1,.3-.252H59.4a2.554,2.554,0,0,1,1.328.263Q61.137,163.749,61,164.6Z" fill="#003087"/>
    <path id="Path_18006" data-name="Path 18006" d="M674.241,161.185h-1.694a.274.274,0,0,0-.3.252l-1.488,9.524-.023.046a.323.323,0,0,0,.092.218.293.293,0,0,0,.229.1h1.511a.433.433,0,0,0,.481-.435l1.488-9.364v-.023Q674.538,161.185,674.241,161.185Z" transform="translate(-572.695)" fill="#009cde"/>
    <path id="Path_18007" data-name="Path 18007" d="M316.341,209.6a.325.325,0,0,0-.091-.217.272.272,0,0,0-.206-.1h-1.763a.485.485,0,0,0-.412.229l-2.427,3.572-1.007-3.434a.481.481,0,0,0-.5-.366h-1.717a.27.27,0,0,0-.206.1.323.323,0,0,0-.092.217q0,.046.446,1.351t.961,2.816q.515,1.511.538,1.6a21.3,21.3,0,0,0-1.877,2.747.263.263,0,0,0,.3.3h1.763a.484.484,0,0,0,.412-.229l5.838-8.425A.223.223,0,0,0,316.341,209.6Z" transform="translate(-235.263 -44.726)" fill="#003087"/>
    <path id="Path_18008" data-name="Path 18008" d="M553.047,207.146h-1.74q-.321,0-.389.756a2.4,2.4,0,0,0-2.175-.916,3.7,3.7,0,0,0-2.8,1.236,4.118,4.118,0,0,0-1.156,2.908,2.931,2.931,0,0,0,.79,2.152,2.838,2.838,0,0,0,2.118.8,3.623,3.623,0,0,0,1.351-.275,2.691,2.691,0,0,0,1.076-.733,1.96,1.96,0,0,1-.046.206,1.238,1.238,0,0,0-.046.275q0,.367.3.366h1.58a.46.46,0,0,0,.5-.435l.939-5.975a.308.308,0,0,0-.069-.252A.282.282,0,0,0,553.047,207.146Zm-2.988,4.51a1.938,1.938,0,0,1-1.408.572,1.558,1.558,0,0,1-1.076-.366,1.277,1.277,0,0,1-.412-1.007,1.966,1.966,0,0,1,.572-1.431,1.907,1.907,0,0,1,1.419-.584,1.542,1.542,0,0,1,1.065.378,1.325,1.325,0,0,1,.424,1.042A1.882,1.882,0,0,1,550.059,211.656Z" transform="translate(-455.554 -42.596)" fill="#009cde"/>
    <path id="Path_18009" data-name="Path 18009" d="M181.388,207.146h-1.74q-.321,0-.389.756a2.433,2.433,0,0,0-2.175-.916,3.7,3.7,0,0,0-2.8,1.236,4.118,4.118,0,0,0-1.156,2.908,2.931,2.931,0,0,0,.79,2.152,2.837,2.837,0,0,0,2.118.8,3.571,3.571,0,0,0,1.328-.275,2.892,2.892,0,0,0,1.1-.733,1.547,1.547,0,0,0-.092.481q0,.367.3.366h1.58a.46.46,0,0,0,.5-.435l.939-5.975a.309.309,0,0,0-.069-.252A.282.282,0,0,0,181.388,207.146Zm-2.988,4.522a1.986,1.986,0,0,1-1.431.561,1.515,1.515,0,0,1-1.065-.366,1.3,1.3,0,0,1-.4-1.007,1.966,1.966,0,0,1,.572-1.431,1.907,1.907,0,0,1,1.419-.584,1.542,1.542,0,0,1,1.065.378,1.325,1.325,0,0,1,.423,1.042A1.87,1.87,0,0,1,178.4,211.668Z" transform="translate(-109.902 -42.596)" fill="#003087"/>
    <path id="Path_18010" data-name="Path 18010" d="M434.545,161.792a3.983,3.983,0,0,0-2.3-.607H428.6a.444.444,0,0,0-.5.435l-1.488,9.341a.306.306,0,0,0,.069.252.281.281,0,0,0,.229.114h1.877a.364.364,0,0,0,.366-.3l.412-2.656a.445.445,0,0,1,.16-.3.706.706,0,0,1,.343-.149,2.393,2.393,0,0,1,.389-.034q.183,0,.435.023c.168.015.275.023.32.023a4.2,4.2,0,0,0,3.091-1.11,4.137,4.137,0,0,0,1.122-3.079A2.207,2.207,0,0,0,434.545,161.792Zm-2.347,3.766a2.7,2.7,0,0,1-1.511.343l-.733.023.389-2.45a.274.274,0,0,1,.3-.252h.412a5.545,5.545,0,0,1,.8.046,1.134,1.134,0,0,1,.572.286.878.878,0,0,1,.275.7A1.475,1.475,0,0,1,432.2,165.558Z" transform="translate(-345.649)" fill="#009cde"/>
  </g>
</svg>
