<svg xmlns="http://www.w3.org/2000/svg" xmlns:xlink="http://www.w3.org/1999/xlink" width="61" height="61" viewBox="0 0 61 61">
  <defs>
    <filter id="Ellipse_9" x="0" y="0" width="61" height="61" filterUnits="userSpaceOnUse">
      <feOffset dy="3" input="SourceAlpha"/>
      <feGaussianBlur stdDeviation="3" result="blur"/>
      <feFlood flood-opacity="0.161"/>
      <feComposite operator="in" in2="blur"/>
      <feComposite in="SourceGraphic"/>
    </filter>
  </defs>
  <g id="Component_49_1" data-name="Component 49 – 1" transform="translate(9 6)">
    <g transform="matrix(1, 0, 0, 1, -9, -6)" filter="url(#Ellipse_9)">
      <circle id="Ellipse_9-2" data-name="Ellipse 9" cx="21.5" cy="21.5" r="21.5" transform="translate(9 6)" fill="#2374bb" opacity="0.13"/>
    </g>
    <path id="twitter" d="M16.654,3A7.756,7.756,0,0,1,14.42,4.086,3.188,3.188,0,0,0,8.827,6.22v.712a7.585,7.585,0,0,1-6.4-3.223s-2.846,6.4,3.558,9.25A8.282,8.282,0,0,1,1,14.382c6.4,3.558,14.231,0,14.231-8.183a3.2,3.2,0,0,0-.057-.591A5.493,5.493,0,0,0,16.654,3Z" transform="translate(12.875 12.308)" fill="none" stroke="#2374bb" stroke-linecap="round" stroke-linejoin="round" stroke-width="2"/>
  </g>
</svg>
