<svg xmlns="http://www.w3.org/2000/svg" xmlns:xlink="http://www.w3.org/1999/xlink" width="60.692" height="60.692" viewBox="0 0 60.692 60.692">
  <defs>
    <filter id="Path_18236" x="0" y="0" width="60.692" height="60.692" filterUnits="userSpaceOnUse">
      <feOffset dy="3" input="SourceAlpha"/>
      <feGaussianBlur stdDeviation="3" result="blur"/>
      <feFlood flood-opacity="0.051"/>
      <feComposite operator="in" in2="blur"/>
      <feComposite in="SourceGraphic"/>
    </filter>
  </defs>
  <g id="Component_38_1" data-name="Component 38 – 1" transform="translate(9 6)">
    <g transform="matrix(1, 0, 0, 1, -9, -6)" filter="url(#Path_18236)">
      <path id="Path_18236-2" data-name="Path 18236" d="M21.346,0A21.346,21.346,0,1,1,0,21.346,21.346,21.346,0,0,1,21.346,0Z" transform="translate(9 6)" fill="#e1ecf5"/>
    </g>
    <g id="whatsapp" transform="translate(11.622 11.622)">
      <path id="Path_212" data-name="Path 212" d="M16.686,2.762A9.369,9.369,0,0,0,10.017,0h0A9.433,9.433,0,0,0,1.635,13.757L.05,18.286a.875.875,0,0,0,.822,1.163.881.881,0,0,0,.291-.05l4.529-1.585A9.432,9.432,0,0,0,16.686,2.762Zm-.807,12.531a8.294,8.294,0,0,1-9.754,1.459.878.878,0,0,0-.7-.054L1.31,18.139l1.44-4.115a.879.879,0,0,0-.054-.7A8.292,8.292,0,0,1,10.016,1.141h0a8.291,8.291,0,0,1,5.862,14.153Zm0,0" transform="translate(0)" fill="#2374bb"/>
      <path id="Path_213" data-name="Path 213" d="M136.032,119.737a1.114,1.114,0,0,0-1.574,0l-.475.475a6.907,6.907,0,0,1-2.774-2.774l.475-.475a1.114,1.114,0,0,0,0-1.574l-1.279-1.279a1.114,1.114,0,0,0-1.574,0l-1.023,1.023c-.586.586-.615,1.593-.082,2.837a12.45,12.45,0,0,0,5.725,5.725,4.13,4.13,0,0,0,1.592.379,1.7,1.7,0,0,0,1.244-.462l1.023-1.023h0a1.113,1.113,0,0,0,0-1.574Zm-.551,3.069c-.167.167-.682.226-1.581-.159a11.34,11.34,0,0,1-5.126-5.126c-.385-.9-.327-1.413-.16-1.581l1-1,1.239,1.239-.594.594a.87.87,0,0,0-.161,1.014,8.047,8.047,0,0,0,3.534,3.534.87.87,0,0,0,1.014-.161l.594-.594,1.239,1.239Zm0,0" transform="translate(-122.51 -109.463)" fill="#2374bb"/>
    </g>
  </g>
</svg>
