<svg xmlns="http://www.w3.org/2000/svg" width="52" height="52" viewBox="0 0 52 52">
  <g id="customer_service-call_center-woman-headset-headphone" data-name="customer service-call center-woman-headset-headphone" transform="translate(-2 -2)">
    <path id="Path_53" data-name="Path 53" d="M27.2,35.467h1.733a3.467,3.467,0,0,0-6.933,0h1.733a1.733,1.733,0,0,1,3.467,0Z" transform="translate(-2.667 -4)" fill="#2374bb"/>
    <path id="Path_54" data-name="Path 54" d="M37.467,32A3.467,3.467,0,0,0,34,35.467h1.733a1.733,1.733,0,0,1,3.467,0h1.733A3.467,3.467,0,0,0,37.467,32Z" transform="translate(-4.267 -4)" fill="#2374bb"/>
    <path id="Path_55" data-name="Path 55" d="M31.333,45.733c-1.409,0-2.6-.794-2.6-1.733H27c0,1.912,1.944,3.467,4.333,3.467S35.667,45.912,35.667,44H33.933C33.933,44.939,32.743,45.733,31.333,45.733Z" transform="translate(-3.333 -5.6)" fill="#2374bb"/>
    <path id="Path_56" data-name="Path 56" d="M52.267,27.289V20.2A18.22,18.22,0,0,0,34.067,2H21.933a18.22,18.22,0,0,0-18.2,18.2v7.089A2.609,2.609,0,0,0,2,29.733v5.2a2.608,2.608,0,0,0,2.6,2.6v6.933a7.812,7.812,0,0,0,7.8,7.8h9.689A2.609,2.609,0,0,0,24.533,54h6.933a2.6,2.6,0,0,0,0-5.2H24.533a2.609,2.609,0,0,0-2.444,1.733H12.4a6.074,6.074,0,0,1-6.067-6.067V37.533H7.564a4.345,4.345,0,0,0,3.969,2.6H15a11.294,11.294,0,0,0,10.4,6.933h5.2A11.294,11.294,0,0,0,41,40.133h3.467a4.345,4.345,0,0,0,3.969-2.6H51.4a2.608,2.608,0,0,0,2.6-2.6v-5.2a2.609,2.609,0,0,0-1.733-2.444ZM24.533,50.533h6.933a.867.867,0,0,1,0,1.733H24.533a.867.867,0,0,1,0-1.733ZM7.2,35.8H4.6a.867.867,0,0,1-.867-.867v-5.2a.867.867,0,0,1,.867-.867H7.2Zm4.333,2.6a2.608,2.608,0,0,1-2.6-2.6V28.867a2.608,2.608,0,0,1,2.6-2.6h2.6V35.8a11.18,11.18,0,0,0,.312,2.6Zm28.6-2.6A9.539,9.539,0,0,1,30.6,45.333H25.4A9.539,9.539,0,0,1,15.867,35.8V26.041l16.345-4.905,7.921,4.758Zm0-11.934-3.467-2.08h0l-1.733-1.04h0l-1.2-.652-.7-.356-.818-.438-.745.259-15.6,4.68V20.2A9.539,9.539,0,0,1,25.4,10.667h5.2A9.539,9.539,0,0,1,40.133,20.2ZM47.067,35.8a2.608,2.608,0,0,1-2.6,2.6H41.555a11.18,11.18,0,0,0,.312-2.6V26.267h2.6a2.608,2.608,0,0,1,2.6,2.6Zm0-10.374a4.267,4.267,0,0,0-2.6-.893h-2.6V20.2A11.277,11.277,0,0,0,30.6,8.933H25.4A11.277,11.277,0,0,0,14.133,20.2v4.333h-2.6a4.267,4.267,0,0,0-2.6.893V20.2a13.016,13.016,0,0,1,13-13H34.067a13.016,13.016,0,0,1,13,13Zm-13-19.959H21.933A14.754,14.754,0,0,0,7.2,20.2v6.933H5.467V20.2A16.481,16.481,0,0,1,21.933,3.733H34.067A16.481,16.481,0,0,1,50.533,20.2v6.933H48.8V20.2A14.754,14.754,0,0,0,34.067,5.467Zm18.2,29.467a.867.867,0,0,1-.867.867H48.8V28.867h2.6a.867.867,0,0,1,.867.867Z" fill="#2374bb"/>
  </g>
</svg>
