<svg id="customer_service-call_center-woman-headset-headphone" data-name="customer service-call center-woman-headset-headphone" xmlns="http://www.w3.org/2000/svg" width="49" height="49" viewBox="0 0 49 49">
  <path id="Path_53" data-name="Path 53" d="M26.9,35.267h1.633a3.267,3.267,0,0,0-6.533,0h1.633a1.633,1.633,0,0,1,3.267,0Z" transform="translate(-5.667 -7.5)" fill="#444"/>
  <path id="Path_54" data-name="Path 54" d="M37.267,32A3.267,3.267,0,0,0,34,35.267h1.633a1.633,1.633,0,0,1,3.267,0h1.633A3.267,3.267,0,0,0,37.267,32Z" transform="translate(-7.867 -7.5)" fill="#444"/>
  <path id="Path_55" data-name="Path 55" d="M31.083,45.633c-1.328,0-2.45-.748-2.45-1.633H27c0,1.8,1.832,3.267,4.083,3.267S35.167,45.8,35.167,44H33.533C33.533,44.885,32.411,45.633,31.083,45.633Z" transform="translate(-6.583 -9.7)" fill="#444"/>
  <path id="Path_56" data-name="Path 56" d="M49.367,25.83V19.15A17.169,17.169,0,0,0,32.217,2H20.783A17.169,17.169,0,0,0,3.633,19.15v6.68A2.458,2.458,0,0,0,2,28.133v4.9a2.457,2.457,0,0,0,2.45,2.45v6.533a7.361,7.361,0,0,0,7.35,7.35h9.13A2.458,2.458,0,0,0,23.233,51h6.533a2.45,2.45,0,0,0,0-4.9H23.233a2.458,2.458,0,0,0-2.3,1.633H11.8a5.723,5.723,0,0,1-5.717-5.717V35.483h1.16a4.1,4.1,0,0,0,3.74,2.45H14.25a10.642,10.642,0,0,0,9.8,6.533h4.9a10.642,10.642,0,0,0,9.8-6.533h3.267a4.1,4.1,0,0,0,3.74-2.45H48.55A2.457,2.457,0,0,0,51,33.033v-4.9a2.458,2.458,0,0,0-1.633-2.3Zm-26.133,21.9h6.533a.817.817,0,0,1,0,1.633H23.233a.817.817,0,0,1,0-1.633ZM6.9,33.85H4.45a.817.817,0,0,1-.817-.817v-4.9a.817.817,0,0,1,.817-.817H6.9Zm4.083,2.45a2.457,2.457,0,0,1-2.45-2.45V27.317a2.457,2.457,0,0,1,2.45-2.45h2.45V33.85a10.535,10.535,0,0,0,.294,2.45Zm26.95-2.45a8.989,8.989,0,0,1-8.983,8.983h-4.9a8.989,8.989,0,0,1-8.983-8.983v-9.2l15.4-4.622,7.464,4.483Zm0-11.245-3.267-1.96h0l-1.633-.98h0L31.9,19.05l-.662-.335-.771-.413-.7.244-14.7,4.41V19.15a8.989,8.989,0,0,1,8.983-8.983h4.9a8.989,8.989,0,0,1,8.983,8.983ZM44.467,33.85a2.457,2.457,0,0,1-2.45,2.45H39.273a10.535,10.535,0,0,0,.294-2.45V24.867h2.45a2.457,2.457,0,0,1,2.45,2.45Zm0-9.775a4.021,4.021,0,0,0-2.45-.841h-2.45V19.15A10.626,10.626,0,0,0,28.95,8.533h-4.9A10.626,10.626,0,0,0,13.433,19.15v4.083h-2.45a4.021,4.021,0,0,0-2.45.841V19.15A12.265,12.265,0,0,1,20.783,6.9H32.217a12.265,12.265,0,0,1,12.25,12.25ZM32.217,5.267H20.783A13.9,13.9,0,0,0,6.9,19.15v6.533H5.267V19.15A15.531,15.531,0,0,1,20.783,3.633H32.217A15.531,15.531,0,0,1,47.733,19.15v6.533H46.1V19.15A13.9,13.9,0,0,0,32.217,5.267Zm17.15,27.767a.817.817,0,0,1-.817.817H46.1V27.317h2.45a.817.817,0,0,1,.817.817Z" transform="translate(-2 -2)" fill="#2374bb"/>
</svg>
