<svg xmlns="http://www.w3.org/2000/svg" width="53" height="52.999" viewBox="0 0 53 52.999">
  <g id="email" transform="translate(-0.001 -0.005)">
    <g id="Group_37073" data-name="Group 37073" transform="translate(0.001 0.004)">
      <g id="Group_37072" data-name="Group 37072" transform="translate(0)">
        <path id="Path_18201" data-name="Path 18201" d="M52.99,20.266a.835.835,0,0,0-.036-.179.884.884,0,0,0-.05-.152.793.793,0,0,0-.088-.135.833.833,0,0,0-.117-.137c-.014-.012-.02-.029-.035-.042l-8.5-6.6V6.185a2.65,2.65,0,0,0-2.65-2.65H31.944L28.111.558a2.619,2.619,0,0,0-3.222,0L21.055,3.535H11.482a2.65,2.65,0,0,0-2.65,2.65v6.838l-8.493,6.6c-.015.012-.021.029-.035.042a.829.829,0,0,0-.117.137.788.788,0,0,0-.088.135.872.872,0,0,0-.05.152.837.837,0,0,0-.036.177c0,.019-.011.034-.011.053V50.353A2.62,2.62,0,0,0,.52,51.913c.005.008.006.018.012.025s.019.015.028.025A2.637,2.637,0,0,0,2.648,53h47.7a2.638,2.638,0,0,0,2.1-1.046c.007-.009.018-.011.024-.02s.007-.017.012-.025A2.621,2.621,0,0,0,53,50.354V20.319C53,20.3,52.991,20.284,52.99,20.266ZM25.97,1.952a.847.847,0,0,1,1.054,0l2.038,1.582H23.938ZM2.871,51.237l23.1-17.942a.848.848,0,0,1,1.054,0l23.1,17.942ZM51.234,49.86,28.111,31.9a2.621,2.621,0,0,0-3.222,0L1.765,49.86v-28.2L16.241,32.905a.884.884,0,0,0,1.083-1.4L2.617,20.089l6.215-4.829v6.826a.883.883,0,1,0,1.767,0V6.185a.883.883,0,0,1,.883-.883H41.517a.883.883,0,0,1,.883.883v15.9a.883.883,0,1,0,1.767,0V15.259l6.215,4.829L35.649,31.529a.883.883,0,1,0,1.083,1.4l14.5-11.26v28.2Z" transform="translate(-0.001 -0.005)" fill="#2374bb"/>
        <path id="Path_18202" data-name="Path 18202" d="M174.775,82.371V78.838a10.6,10.6,0,1,0-10.6,10.6.883.883,0,1,0,0-1.767,8.834,8.834,0,1,1,8.834-8.834v3.533a1.767,1.767,0,0,1-3.534,0V78.838a.883.883,0,0,0-1.767,0,3.533,3.533,0,1,1-3.534-3.533.883.883,0,1,0,0-1.767,5.3,5.3,0,1,0,3.571,9.206,3.524,3.524,0,0,0,7.029-.372Z" transform="translate(-137.676 -61.174)" fill="#2374bb"/>
      </g>
    </g>
  </g>
</svg>
