<svg xmlns="http://www.w3.org/2000/svg" width="437.746" height="485.26" viewBox="0 0 437.746 485.26">
  <g id="Group_37377" data-name="Group 37377" transform="translate(-1352.056 -268)">
    <g id="Group_37376" data-name="Group 37376" transform="translate(1413.724 348.669)">
      <path id="Path_418" data-name="Path 418" d="M366.092,196.045C326.286,135.094,330.517,72.616,311.329,43.24S234.958-36.783,99.846,51.471-.9,235.662,20.212,267.964C119.023,419.233,436.6,303.992,366.092,196.045Z" transform="translate(-0.134 -1.91)" fill="rgba(35,116,187,0.04)"/>
    </g>
    <g id="Online_Courses" data-name="Online Courses" transform="translate(1352.056 268)">
      <path id="Path_18925" data-name="Path 18925" d="M604.981,1146.243h-61.2a83.968,83.968,0,0,1-12.945-6.411c-5.953-3.7-11.441-8.626-10.142-13.717,1.054-4.115,5.108-3.988,9.124-2.7a43.7,43.7,0,0,1,9.051,4.446c-.155-.159-3.3-3.412-7.612-8.532-11.547-13.713-31.463-40.861-24.66-57.982,4.36-10.992,20.635-6.006,39.251,8.295a183.722,183.722,0,0,1,24.01,22.474C583.753,1107.523,596.727,1126.45,604.981,1146.243Z" transform="translate(-426.839 -677.743)" fill="#bacfe2"/>
      <path id="Path_18926" data-name="Path 18926" d="M604.43,1112.778c-.069,8.123-2.971,16.422-12.45,21.481-14.089,7.514-13.076,23.291-10.959,32.64h-2.668a83.96,83.96,0,0,1-12.945-6.411c-1.5-4.674-2.476-10.554-1.017-16.414a43.717,43.717,0,0,1,9.051,4.446c-.155-.159-3.3-3.412-7.612-8.532a25.274,25.274,0,0,1,8.029-9.562c14.134-10.567,10.215-29.612,6.562-40.126A182.692,182.692,0,0,1,604.43,1112.778Z" transform="translate(-461.408 -698.398)" fill="#74a5d3"/>
      <path id="Path_18927" data-name="Path 18927" d="M639.7,1209.346c-13.517,9.676-9.847,31.708,3.567,18.135S652.371,1200.262,639.7,1209.346Z" transform="translate(-501.349 -767.062)" fill="#74a5d3"/>
      <path id="Path_18928" data-name="Path 18928" d="M618.465,1174.678h-3.056c-2.77-3.069-7.38-8.172-12.875-14.3-3.044-3.4-6.358-7.11-9.782-10.951-2.153-2.419-4.352-4.9-6.538-7.355-3.706-4.188-7.416-8.4-10.934-12.418-16.038-18.347-28.031-32.775-17.268-23.095,5.6,5.034,12.132,11.752,18.829,19.062,4.245,4.629,8.581,9.5,12.741,14.3,2.145,2.452,4.25,4.928,6.3,7.355,2.938,3.461,5.753,6.82,8.364,9.962C610.513,1164.778,615.621,1171.1,618.465,1174.678Z" transform="translate(-455.63 -706.178)" fill="#fff"/>
      <path id="Path_18929" data-name="Path 18929" d="M795.425,1192.575a164.118,164.118,0,0,1-12.43,12.209c-.817.7-1.25,1.083-1.25,1.083H749.37A80.969,80.969,0,0,1,764.8,1177.82a82.124,82.124,0,0,1,9.2-9.4c13.75-11.895,28.668-16.2,34.507-8.009S804.725,1182.355,795.425,1192.575Z" transform="translate(-571.228 -737.367)" fill="#bacfe2"/>
      <path id="Path_18930" data-name="Path 18930" d="M817.756,1210.273a164.1,164.1,0,0,1-12.43,12.209c.8-5.145-.862-10.755-8.822-14.927-6.015-3.155-8.626-7.519-9.374-12.038a82.1,82.1,0,0,1,9.2-9.4c-1.132,4.989-.208,9.934,6.906,11.441A18.746,18.746,0,0,1,817.756,1210.273Z" transform="translate(-593.559 -755.065)" fill="#74a5d3"/>
      <path id="Path_18931" data-name="Path 18931" d="M784.752,1219.951H780.11c6.452-8.728,25.591-34.1,34.115-39.7C819.41,1176.85,792.993,1209.756,784.752,1219.951Z" transform="translate(-589.407 -751.451)" fill="#fff"/>
      <path id="Path_19001" data-name="Path 19001" d="M994.68,1109.852l.911,23.4,10.7.862,1.463-25.322Z" transform="translate(-716.301 -709.333)" fill="#fff"/>
      <path id="Path_19002" data-name="Path 19002" d="M1004.649,1133.61h-.09l-10.7-.862a1.136,1.136,0,0,1-1.042-1.087l-.911-23.4a1.136,1.136,0,0,1,1.042-1.177l13.075-1.063a1.136,1.136,0,0,1,1.226,1.2l-1.463,25.334A1.136,1.136,0,0,1,1004.649,1133.61Zm-9.6-3.048,8.536.687,1.32-22.862-10.685.87Z" transform="translate(-714.662 -707.695)" fill="#262424"/>
      <path id="Path_19003" data-name="Path 19003" d="M1002,687.238c-.842,6.284-15.008,142.157-15.008,142.157l-25.4.172-4.752-66.931-1.316-18.514-6.5-91.5c-2.509-30.887,48.257-31.055,52.691-2.746C1003.58,661.74,1002.844,680.949,1002,687.238Z" transform="translate(-689.251 -425.61)" fill="#bacfe2"/>
      <path id="Path_19004" data-name="Path 19004" d="M1028.152,858.067h-.1a1.136,1.136,0,0,1-1.026-1.226l14.931-163.9a1.136,1.136,0,0,1,2.26.2l-14.931,163.9a1.136,1.136,0,0,1-1.132,1.022Z" transform="translate(-735.427 -462.827)" fill="#262424"/>
      <path id="Path_19005" data-name="Path 19005" d="M1052.84,709.488a4.171,4.171,0,0,1-3.158-1.475c-4.422-4.936-2.705-21.853-2.5-23.765a1.136,1.136,0,1,1,2.256.249c-.539,4.9-1.226,18.461,1.933,22a1.891,1.891,0,0,0,1.467.719,1.136,1.136,0,0,1,0,2.268Z" transform="translate(-747.056 -457.635)" fill="#262424"/>
      <path id="Path_19006" data-name="Path 19006" d="M984.872,910.163c.131,7.915-4.638,14.412-10.657,14.514a9.8,9.8,0,0,1-7.849-4.168l-1.316-18.514c1.929-3.575,5.083-5.929,8.687-5.986C979.74,895.914,984.741,902.248,984.872,910.163Z" transform="translate(-698.778 -583.497)" fill="#fff"/>
      <path id="Path_19007" data-name="Path 19007" d="M1005.735,1106.277h0l-20.917-.1a1.136,1.136,0,1,1,0-2.268l20.917.1a1.136,1.136,0,0,1,0,2.268Z" transform="translate(-709.757 -706.444)" fill="#262424"/>
      <path id="Path_19008" data-name="Path 19008" d="M906.08,1202.278v4.985H957.4s.168-2.6.327-6.979c.319-8.61.625-24.108-.327-40.089l-18.723-1.635a207.82,207.82,0,0,1-22.1,29.784c-1.3,1.418-4.732,3.751-6.174,5.063A12.105,12.105,0,0,0,906.08,1202.278Z" transform="translate(-663.904 -738.766)" fill="#bacfe2"/>
      <path id="Path_19009" data-name="Path 19009" d="M970.17,1191.291a1.136,1.136,0,0,1-.932-1.781,127.044,127.044,0,0,0,13.93-27.161,1.136,1.136,0,0,1,2.145.744,130.277,130.277,0,0,1-14.208,27.712A1.135,1.135,0,0,1,970.17,1191.291Z" transform="translate(-701.136 -740.578)" fill="#262424"/>
      <ellipse id="Ellipse_353" data-name="Ellipse 353" cx="3.371" cy="7.621" rx="3.371" ry="7.621" transform="translate(284.283 434.888)" fill="#fff"/>
      <path id="Path_19010" data-name="Path 19010" d="M1010.668,1210.173c-3.044,0-4.638-4.474-4.638-8.892s1.594-8.891,4.638-8.891,4.638,4.474,4.638,8.891S1013.712,1210.173,1010.668,1210.173Zm0-15.241c-.609,0-2.1,2.227-2.1,6.354s1.491,6.35,2.1,6.35,2.1-2.227,2.1-6.35-1.491-6.358-2.1-6.358Z" transform="translate(-723.013 -758.773)" fill="#262424"/>
      <path id="Path_19011" data-name="Path 19011" d="M906.08,1245.237v4.985H957.4s.168-2.6.327-6.979H934.217s1.324-13.3-17.636-11.944c-1.3,1.418-4.732,3.751-6.174,5.063A12.12,12.12,0,0,0,906.08,1245.237Z" transform="translate(-663.904 -781.725)" fill="#fff"/>
      <path id="Path_19012" data-name="Path 19012" d="M955.758,1249.714H904.436a1.136,1.136,0,0,1-1.136-1.136v-4.985a13.273,13.273,0,0,1,4.7-9.713c.629-.572,1.577-1.3,2.583-2.068a33.424,33.424,0,0,0,3.518-2.922,1.136,1.136,0,0,1,.756-.368c7.11-.511,12.344.915,15.572,4.233a11.948,11.948,0,0,1,3.269,7.711h22.368a1.136,1.136,0,0,1,1.136,1.177c-.159,4.34-.327,6.983-.327,7.008A1.136,1.136,0,0,1,955.758,1249.714Zm-50.186-2.26h49.115c.053-.976.135-2.591.217-4.707H932.573a1.136,1.136,0,0,1-1.128-1.246,9.932,9.932,0,0,0-2.664-7.171c-2.681-2.738-7.167-3.935-13.333-3.555a41.911,41.911,0,0,1-3.485,2.86c-.964.739-1.875,1.434-2.452,1.941a11.04,11.04,0,0,0-3.959,8.038v3.841Z" transform="translate(-662.26 -780.082)" fill="#262424"/>
      <path id="Path_19013" data-name="Path 19013" d="M1206.5,1112.05l3.657,23.127-10.326,2.93-6.362-24.554Z" transform="translate(-833.863 -711.261)" fill="#fff"/>
      <path id="Path_19014" data-name="Path 19014" d="M1198.149,1137.591a1.136,1.136,0,0,1-1.1-.85l-6.362-24.554a1.136,1.136,0,0,1,.968-1.414l13.026-1.5a1.14,1.14,0,0,1,1.25.952l3.678,23.128a1.136,1.136,0,0,1-.817,1.271l-10.326,2.93A1.135,1.135,0,0,1,1198.149,1137.591Zm-4.9-24.709,5.745,22.167,8.238-2.337-3.33-21.06Z" transform="translate(-832.196 -709.613)" fill="#262424"/>
      <path id="Path_19015" data-name="Path 19015" d="M1066.521,703.486c2.043,6,42.394,136.514,42.394,136.514l24.946-4.777-8.368-66.575-2.313-18.416-11.441-91.019c-3.551-30.785-53.377-21.052-52.217,7.563C1060.007,678.794,1064.469,697.488,1066.521,703.486Z" transform="translate(-754.636 -432.248)" fill="#bacfe2"/>
      <path id="Path_19016" data-name="Path 19016" d="M1059.966,704.4h-.078a1.136,1.136,0,0,1-1.054-1.226l1.924-28.668a1.136,1.136,0,0,1,2.264.151l-1.925,28.668A1.136,1.136,0,0,1,1059.966,704.4Z" transform="translate(-754.239 -451.909)" fill="#262424"/>
      <path id="Path_19017" data-name="Path 19017" d="M1122.965,895.6a1.136,1.136,0,0,1-1.087-.817L1078.19,751.561a1.136,1.136,0,1,1,2.17-.662l43.689,143.219a1.136,1.136,0,0,1-1.083,1.479Z" transform="translate(-765.647 -497.17)" fill="#262424"/>
      <path id="Path_19018" data-name="Path 19018" d="M1171.213,915.03c1.414,7.792,7.355,13.235,13.276,12.164a9.787,9.787,0,0,0,6.885-5.615l-2.313-18.416c-2.586-3.13-6.129-4.826-9.684-4.18C1173.46,900.054,1169.8,907.237,1171.213,915.03Z" transform="translate(-820.521 -585.176)" fill="#fff"/>
      <path id="Path_19019" data-name="Path 19019" d="M1180.61,1109.531a1.136,1.136,0,0,1-.225-2.247l20.5-4.172a1.136,1.136,0,0,1,.453,2.223l-20.5,4.172A1.136,1.136,0,0,1,1180.61,1109.531Z" transform="translate(-825.592 -705.968)" fill="#262424"/>
      <path id="Path_19020" data-name="Path 19020" d="M1249.946,1202.278v4.985h-51.322s-.168-2.6-.327-6.979c-.318-8.61-.625-24.108.327-40.089l18.723-1.635a207.8,207.8,0,0,0,22.1,29.784c1.3,1.418,4.732,3.751,6.174,5.063A12.12,12.12,0,0,1,1249.946,1202.278Z" transform="translate(-836.532 -738.766)" fill="#bacfe2"/>
      <path id="Path_19021" data-name="Path 19021" d="M1237.43,1191.291a1.135,1.135,0,0,1-.932-.486,130.515,130.515,0,0,1-14.212-27.712,1.136,1.136,0,0,1,2.145-.744,128.355,128.355,0,0,0,13.93,27.161,1.136,1.136,0,0,1-.932,1.781Z" transform="translate(-850.875 -740.578)" fill="#262424"/>
      <ellipse id="Ellipse_354" data-name="Ellipse 354" cx="3.371" cy="7.621" rx="3.371" ry="7.621" transform="translate(364.564 434.888)" fill="#fff"/>
      <path id="Path_19022" data-name="Path 19022" d="M1207.132,1210.173c-3.048,0-4.642-4.474-4.642-8.892s1.594-8.891,4.642-8.891,4.638,4.474,4.638,8.891S1210.176,1210.173,1207.132,1210.173Zm0-15.241c-.609,0-2.1,2.227-2.1,6.354s1.491,6.35,2.1,6.35,2.1-2.227,2.1-6.35-1.491-6.358-2.1-6.358Z" transform="translate(-839.197 -758.773)" fill="#262424"/>
      <path id="Path_19023" data-name="Path 19023" d="M1250.4,1245.237v4.985h-51.322s-.167-2.6-.327-6.979h23.507s-1.324-13.3,17.636-11.944c1.3,1.418,4.732,3.751,6.174,5.063A12.124,12.124,0,0,1,1250.4,1245.237Z" transform="translate(-836.985 -781.725)" fill="#fff"/>
      <path id="Path_19024" data-name="Path 19024" d="M1248.759,1249.714h-51.322a1.136,1.136,0,0,1-1.132-1.062c0-.025-.167-2.668-.327-7.008a1.136,1.136,0,0,1,1.136-1.177h22.367a11.947,11.947,0,0,1,3.269-7.711c3.228-3.318,8.466-4.744,15.572-4.233a1.136,1.136,0,0,1,.756.368,33.464,33.464,0,0,0,3.518,2.922c1.005.768,1.953,1.5,2.583,2.068a13.267,13.267,0,0,1,4.7,9.713v4.985a1.136,1.136,0,0,1-1.12,1.136Zm-50.259-2.268h49.115V1243.6a11.019,11.019,0,0,0-3.959-8.037c-.556-.507-1.467-1.205-2.452-1.941a41.856,41.856,0,0,1-3.486-2.86c-6.17-.376-10.652.817-13.333,3.555a9.878,9.878,0,0,0-2.664,7.176,1.136,1.136,0,0,1-1.128,1.226h-22.331c.11,2.141.176,3.755.245,4.74Z" transform="translate(-835.346 -780.082)" fill="#262424"/>
      <path id="Path_19025" data-name="Path 19025" d="M939.858,380.743c-13.607,5.794-28.922,48.968-28.194,65.3.744,16.843,23.634,14.931,31.165,2.905C955.77,426.663,953.98,374.729,939.858,380.743Z" transform="translate(-667.192 -278.492)" fill="#74a5d3"/>
      <path id="Path_19026" data-name="Path 19026" d="M1044.588,377.946l1.479,119.593s-3.355.462-9.145,1v-13.77a2.006,2.006,0,0,0-2.386-1.974,2.068,2.068,0,0,0-1.635,2.043v14.04c-19.017,1.549-55.633,3.032-89.642-4.086,0,0,4.339-100.519,15.294-128.664,0,0,19.237-10.979,41.315-10.534,14.951.3,30.127,7.3,38.361,11.78A12.185,12.185,0,0,1,1044.588,377.946Z" transform="translate(-685.892 -263.894)" fill="#74a5d3"/>
      <path id="Path_19027" data-name="Path 19027" d="M954.106,446.436h-.118a1.136,1.136,0,0,1-1.013-1.226c2.517-24.607,5.406-42.6,8.581-53.488a1.136,1.136,0,0,1,2.178.637c-3.138,10.755-6,28.6-8.5,53.083A1.136,1.136,0,0,1,954.106,446.436Z" transform="translate(-691.634 -284.817)" fill="#262424"/>
      <path id="Path_19028" data-name="Path 19028" d="M1008.8,689.21a457.451,457.451,0,0,1-56.07-3.608,1.091,1.091,0,0,1,.3-2.157c.409.057,41.352,5.721,79.794,2.717a1.091,1.091,0,0,1,.168,2.174C1024.893,688.961,1016.7,689.21,1008.8,689.21Z" transform="translate(-690.971 -457.787)" fill="#262424"/>
      <path id="Path_19029" data-name="Path 19029" d="M1069.821,361.755c-3.024,7.032-8.7,11.923-12.258,13.039a72.476,72.476,0,0,0-3.433-11.323,29.425,29.425,0,0,0-4.642,11.266c-9.059-2.488-10.089-13.239-10.089-13.239a14.763,14.763,0,0,1,15.049-13.035C1068.685,348.932,1069.821,361.755,1069.821,361.755Z" transform="translate(-742.748 -259.683)" fill="#fff"/>
      <path id="Path_19030" data-name="Path 19030" d="M1055.891,374.264a1.136,1.136,0,0,1-1.115-.932,62.435,62.435,0,0,0-2.587-9.01,29.2,29.2,0,0,0-3.269,8.928,1.136,1.136,0,0,1-1.422.919c-9.7-2.668-10.873-13.754-10.918-14.228a1.134,1.134,0,0,1,0-.249,15.846,15.846,0,0,1,16.214-14.024c15.062.511,16.447,14.187,16.459,14.326a1.132,1.132,0,0,1-.086.547c-3.1,7.212-8.99,12.426-12.961,13.672A1.131,1.131,0,0,1,1055.891,374.264Zm-17.019-14.424c.139,1.062,1.406,9.108,8.082,11.752a30.5,30.5,0,0,1,4.585-10.452,1.136,1.136,0,0,1,1.974.245,77.562,77.562,0,0,1,3.216,10.158c3.06-1.532,7.592-5.631,10.256-11.637-.253-1.818-2.178-11.576-14.245-11.985a13.594,13.594,0,0,0-13.868,11.915Z" transform="translate(-741.076 -258.03)" fill="#262424"/>
      <path id="Path_19031" data-name="Path 19031" d="M1006.708,558.922,989.954,554.4a3.371,3.371,0,0,0-2.161.139l-12.03,4.94a3.371,3.371,0,0,0-1.855,4.335l2.86,7.355a3.371,3.371,0,0,0,4.217,1.978l5.369-1.806,6.983,1.769a11.764,11.764,0,0,0,8.074-.842l5.312-2.6V558.922Z" transform="translate(-703.881 -381.408)" fill="#fff"/>
      <path id="Path_19032" data-name="Path 19032" d="M994.564,572.952a12.9,12.9,0,0,1-3.167-.409l-6.66-1.688-5.05,1.7a4.5,4.5,0,0,1-5.639-2.644l-2.86-7.355a4.531,4.531,0,0,1,2.48-5.794l12.005-4.956a4.528,4.528,0,0,1,2.893-.188l16.753,4.519a1.136,1.136,0,0,1,.838,1.1v10.8a1.136,1.136,0,0,1-.633,1.018l-5.312,2.6a12.906,12.906,0,0,1-5.647,1.3Zm-9.872-4.4a1.144,1.144,0,0,1,.278.033l6.983,1.769a10.624,10.624,0,0,0,7.3-.76l4.67-2.292v-9.177l-15.936-4.29a2.251,2.251,0,0,0-1.434.094l-12.005,4.957a2.247,2.247,0,0,0-1.226,2.86l2.86,7.355a2.235,2.235,0,0,0,2.8,1.312l5.369-1.806A1.131,1.131,0,0,1,984.692,568.551Z" transform="translate(-702.231 -379.739)" fill="#262424"/>
      <path id="Path_19033" data-name="Path 19033" d="M1114.117,465.273c-1.81,4.548-4.086,8.05-6.808,9.925-3.583,2.452-8.213,3.849-13.288,4.523-19.151,2.529-44.682-5.23-44.682-5.23l-.629-16.7,36.076-6.562s3.567-64.561,15.527-63.834C1117.933,388.453,1120.961,448.111,1114.117,465.273Z" transform="translate(-748.254 -282.704)" fill="#74a5d3"/>
      <path id="Path_19034" data-name="Path 19034" d="M1179.245,575.232c-1.8,4.556-4.086,8.05-6.807,9.925-3.583,2.452-8.213,3.849-13.288,4.523a13.484,13.484,0,0,1,20.1-14.449Z" transform="translate(-813.382 -392.664)" fill="#fff"/>
      <path id="Path_19035" data-name="Path 19035" d="M1146.291,555.176a1.132,1.132,0,0,1-.842-.376L1134.6,542.766a1.136,1.136,0,0,1,1.688-1.52l10.853,12.038a1.136,1.136,0,0,1-.854,1.892Z" transform="translate(-798.889 -373.486)" fill="#262424"/>
      <path id="Path_19036" data-name="Path 19036" d="M1083.935,484.683c-17.325,0-35.725-5.525-36.6-5.79a1.136,1.136,0,0,1-.817-1.042l-.63-16.708a1.136,1.136,0,0,1,.932-1.16l35.218-6.415c.409-6.771,3.2-47.5,10.971-60.021a1.136,1.136,0,1,1,1.929,1.2c-8,12.892-10.661,59.376-10.685,59.846a1.136,1.136,0,0,1-.928,1.054l-35.141,6.4.56,14.906c4.237,1.205,25.032,6.779,41.6,5.177a1.136,1.136,0,0,1,.217,2.26C1088.43,484.589,1086.186,484.683,1083.935,484.683Z" transform="translate(-746.585 -286.007)" fill="#262424"/>
      <path id="Path_19037" data-name="Path 19037" d="M1069.191,569.283a1.136,1.136,0,0,1-1.132-1.058l-.919-13.852a1.136,1.136,0,0,1,2.264-.151l.919,13.852a1.136,1.136,0,0,1-1.058,1.226h-.078Z" transform="translate(-759.153 -380.777)" fill="#262424"/>
      <circle id="Ellipse_355" data-name="Ellipse 355" cx="1.859" cy="1.859" r="1.859" transform="matrix(0.788, -0.615, 0.615, 0.788, 302.62, 187.119)" fill="#fff"/>
      <path id="Path_19038" data-name="Path 19038" d="M1056.061,588.676a3,3,0,1,1,2.354-4.838h0a3,3,0,0,1-2.354,4.838Zm0-3.718a.723.723,0,1,0,.572.278h0a.723.723,0,0,0-.58-.278Z" transform="translate(-750.824 -398.201)" fill="#262424"/>
      <path id="Path_19039" data-name="Path 19039" d="M1071.416,308.62l-.221,8.736-.408,14.968c-5.034,3.518-9.933,3.89-14.657.343l.69-6.946,1.046-10.53Z" transform="translate(-752.642 -236.124)" fill="#fff"/>
      <path id="Path_19040" data-name="Path 19040" d="M1061.33,334.666a12.4,12.4,0,0,1-7.519-2.721,1.136,1.136,0,0,1-.449-1.022l1.741-17.485a1.132,1.132,0,0,1,.634-.907l13.545-6.579a1.136,1.136,0,0,1,1.634,1.05l-.629,23.7a1.132,1.132,0,0,1-.482.9A14.732,14.732,0,0,1,1061.33,334.666Zm-5.643-4.168c3.861,2.644,7.911,2.5,12.344-.409l.564-21.272-11.3,5.48Z" transform="translate(-751.002 -234.478)" fill="#262424"/>
      <path id="Path_19041" data-name="Path 19041" d="M1067.173,314.18c-.07,3.951.294,17.415-10.313,18.87l1.451-14.563Z" transform="translate(-753.073 -239.412)" fill="#262424"/>
      <path id="Path_19042" data-name="Path 19042" d="M1025.233,290.492c2.186,6.9,6,14.894,14.175,11.813,9.721-3.678,14.71-12.132,12.818-21.714s-7.453-14.052-18.674-10.554a17.94,17.94,0,0,0-2.779,1.12c-6.215,3.159-8.385,9.312-6.632,15.634C1024.464,287.93,1024.816,289.193,1025.233,290.492Z" transform="translate(-733.378 -212.606)" fill="#fff"/>
      <path id="Path_19043" data-name="Path 19043" d="M1034.385,304.155a8.258,8.258,0,0,1-3.788-.9c-5.01-2.542-7.355-9.656-9.137-16.128-2.288-8.242,1.8-15.527,10.166-18.138a1.136,1.136,0,1,1,.674,2.166c-7.224,2.251-10.624,8.283-8.654,15.368,1.2,4.335,3.441,12.406,7.976,14.71a6.894,6.894,0,0,0,5.794.049,20.324,20.324,0,0,0,8.65-5.962,1.136,1.136,0,0,1,1.749,1.447,22.883,22.883,0,0,1-9.6,6.636A10.865,10.865,0,0,1,1034.385,304.155Z" transform="translate(-731.767 -212.641)" fill="#262424"/>
      <path id="Path_19044" data-name="Path 19044" d="M1044.037,271.368a30,30,0,0,1-2.427,4.609l-5,1.377-1.835-3.363s-3.244.531-4.368-1.5a1.223,1.223,0,0,1-.074-.143,28.773,28.773,0,0,1-2.194-8.736s-7.016,5.034-11.131,6.358a9.8,9.8,0,0,1-5.185-.2c-3.637-.936-7.637-5.721-7.825-9.451v-.074c-.208-5.508,3.334-2.4,3.334-2.4s-.106-4.45,2.513-5.312,5.157,2.73,5.157,2.73a43.164,43.164,0,0,1,15.572-3.947c10.7-.588,9.619,7.094,9.619,7.094S1048.315,259.249,1044.037,271.368Z" transform="translate(-721.806 -202.214)" fill="#262424"/>
      <path id="Path_19045" data-name="Path 19045" d="M1085.653,298.917a7.533,7.533,0,0,1,4.654-9.5,6.839,6.839,0,0,1,2.566-.351c5.226.3,6.346,12.091-5.949,13.754Z" transform="translate(-769.878 -224.553)" fill="#fff"/>
      <path id="Path_19046" data-name="Path 19046" d="M1085.253,302.309a1.136,1.136,0,0,1-.151-2.26c6.6-.891,8.8-4.781,8.683-7.845-.069-1.745-1-3.559-2.652-3.653a5.747,5.747,0,0,0-2.141.294,6.387,6.387,0,0,0-3.935,8.07,1.136,1.136,0,0,1-2.157.7,8.658,8.658,0,0,1,5.373-10.926,7.99,7.99,0,0,1,2.987-.409c2.652.151,4.662,2.6,4.789,5.831.168,4.327-3.06,9.157-10.648,10.179Z" transform="translate(-768.207 -222.907)" fill="#262424"/>
      <path id="Path_19047" data-name="Path 19047" d="M1030.264,340.613l4.012,6.415,12.826-7.845a2.19,2.19,0,0,1,3.167,1.026h0a2.191,2.191,0,0,1-.233,2.108l-1.634,2.3,3.109,6.709a6.464,6.464,0,0,1-1.814,7.764l-9.243,7.433-5.741,6.448-10.154-9.149,5.581-6.129-2.043-5.189-1.573-10.5a2.043,2.043,0,0,1,1.385-2.239h0A2.043,2.043,0,0,1,1030.264,340.613Z" transform="translate(-733.972 -254.007)" fill="#fff"/>
      <path id="Path_19048" data-name="Path 19048" d="M1033.071,372.46a1.136,1.136,0,0,1-.76-.29l-10.154-9.149a1.136,1.136,0,0,1-.082-1.606l5.108-5.61-1.79-4.532a1.143,1.143,0,0,1-.065-.249l-1.573-10.5a3.171,3.171,0,0,1,5.827-2.153h0l3.416,5.463,11.85-7.257a3.326,3.326,0,0,1,4.454,4.756l-1.25,1.769,2.831,6.129a7.584,7.584,0,0,1-2.133,9.112l-9.169,7.355-5.68,6.378a1.132,1.132,0,0,1-.785.38h-.061Zm-8.548-10.362,8.458,7.621,4.985-5.6a1.118,1.118,0,0,1,.135-.131l9.243-7.433a5.312,5.312,0,0,0,1.5-6.391l-3.11-6.71a1.132,1.132,0,0,1,.1-1.132l1.634-2.3a1.058,1.058,0,0,0-1.414-1.512l-12.826,7.845a1.136,1.136,0,0,1-1.553-.368l-4.013-6.415a.9.9,0,0,0-1.659.613l1.553,10.371,2,5.067a1.137,1.137,0,0,1-.217,1.181Z" transform="translate(-732.329 -252.369)" fill="#262424"/>
      <path id="Path_19049" data-name="Path 19049" d="M970.8,404.318s-21.7,58.362-42.381,61.615c-.3.049-.6.086-.891.11-10.305.817-14.542-4.176-15.572-10.481-.936-5.721.76-12.512,2.954-17.006,8.229-16.863,42.716-46.365,42.716-46.365Z" transform="translate(-667.226 -285.546)" fill="#74a5d3"/>
      <path id="Path_19050" data-name="Path 19050" d="M1019.158,418.081a1.128,1.128,0,0,1-.772-.3l-12.965-12.046a1.136,1.136,0,1,1,1.545-1.663l12.961,12.03a1.136,1.136,0,0,1-.768,1.982Z" transform="translate(-722.416 -292.371)" fill="#262424"/>
      <circle id="Ellipse_356" data-name="Ellipse 356" cx="1.863" cy="1.863" r="1.863" transform="translate(295.658 120.935) rotate(-87.8)" fill="#fff"/>
      <path id="Path_19051" data-name="Path 19051" d="M1037.293,421.429h-.119a3,3,0,1,1,.119,0Zm0-3.722a.727.727,0,1,0,.028,0Z" transform="translate(-739.693 -299.291)" fill="#262424"/>
      <path id="Path_19052" data-name="Path 19052" d="M934.651,464.507a1.136,1.136,0,0,1-.437-2.182c17.758-7.412,35.856-53.054,38.271-59.323l-11.85-10.922c-5.1,4.446-34.324,30.262-41.679,45.356a1.137,1.137,0,1,1-2.043-1c8.238-16.884,41.585-45.52,43-46.733a1.136,1.136,0,0,1,1.508.029l13.174,12.128a1.136,1.136,0,0,1,.294,1.226c-.817,2.162-19.912,53.038-39.795,61.337A1.132,1.132,0,0,1,934.651,464.507Z" transform="translate(-670.243 -283.916)" fill="#262424"/>
      <path id="Path_19053" data-name="Path 19053" d="M929.992,544.131a15.085,15.085,0,0,1-1.189,1.455c-.3.049-.6.086-.891.11-10.305.817-14.542-4.176-15.572-10.481a14.794,14.794,0,0,1,1.5-2.648c3.923-5.471,10.714-7.314,15.164-4.123S933.911,538.664,929.992,544.131Z" transform="translate(-667.607 -365.199)" fill="#fbfeff"/>
      <path id="Path_19069" data-name="Path 19069" d="M1304.107,481.441a4.9,4.9,0,0,1-1.512-.237l-18.416-5.941a.818.818,0,1,1,.5-1.557l18.424,5.941a3.269,3.269,0,0,0,2.018,0l18.723-6.035a.818.818,0,1,1,.5,1.557l-18.723,6.035a4.9,4.9,0,0,1-1.52.237Z" transform="translate(-887.172 -333.674)" fill="#fff"/>
      <path id="Path_19071" data-name="Path 19071" d="M1273.982,940.236a6.129,6.129,0,0,0,3.175-3.175l.818-1.872.817,1.872a6.129,6.129,0,0,0,3.175,3.175l1.871.817-1.871.817a6.129,6.129,0,0,0-3.175,3.175l-.817,1.871-.818-1.871a6.129,6.129,0,0,0-3.175-3.175l-1.871-.817Z" transform="translate(-880.37 -606.668)" fill="#74a5d3"/>
      <path id="Path_19072" data-name="Path 19072" d="M1334.362,1019.134a9.705,9.705,0,0,0,5.022-5.022l1.291-2.963,1.291,2.963a9.7,9.7,0,0,0,5.022,5.022l2.962,1.291-2.962,1.291a9.705,9.705,0,0,0-5.022,5.022l-1.291,2.963-1.291-2.963a9.706,9.706,0,0,0-5.022-5.022l-2.962-1.291Z" transform="translate(-915.433 -651.59)" fill="#bacfe2"/>
      <path id="Path_19073" data-name="Path 19073" d="M873.578,142.441a13.668,13.668,0,0,0,7.073-7.073l1.818-4.168,1.818,4.168a13.669,13.669,0,0,0,7.073,7.073l4.168,1.818-4.168,1.818a13.668,13.668,0,0,0-7.073,7.073l-1.818,4.168-1.818-4.168a13.668,13.668,0,0,0-7.073-7.073l-4.168-1.818Z" transform="translate(-642.218 -131.2)" fill="#74a5d3"/>
      <path id="Path_19074" data-name="Path 19074" d="M1207.568,312.126a10.281,10.281,0,0,0,5.312-5.312l1.365-3.134,1.365,3.134a10.28,10.28,0,0,0,5.312,5.312l3.134,1.365-3.118,1.353a10.281,10.281,0,0,0-5.312,5.312l-1.365,3.134-1.365-3.134a10.282,10.282,0,0,0-5.312-5.312l-3.134-1.365Z" transform="translate(-840.356 -233.202)" fill="#74a5d3"/>
      <circle id="Ellipse_358" data-name="Ellipse 358" cx="4.666" cy="4.666" r="4.666" transform="translate(207.591 103.665)" fill="#bacfe2"/>
      <circle id="Ellipse_359" data-name="Ellipse 359" cx="4.666" cy="4.666" r="4.666" transform="translate(99.766 343.979)" fill="#bacfe2"/>
      <path id="Path_19079" data-name="Path 19079" d="M331.153,1018.966a17.73,17.73,0,1,1,6.754-1.344h0a17.649,17.649,0,0,1-6.754,1.345Zm-.045-33.192a15.462,15.462,0,1,0,5.929,29.751h0a15.462,15.462,0,0,0-5.929-29.755Zm6.362,30.8Z" transform="translate(-313.404 -635.241)" fill="#74a5d3"/>
      <path id="Path_19080" data-name="Path 19080" d="M348.041,1019.445c-1.749,0-3.767-1.14-5.831-3.33a35.241,35.241,0,0,1-6.419-10.481c-3.269-7.943-4.364-17.382.11-19.234,2.043-.838,4.6.245,7.249,3.052a35.244,35.244,0,0,1,6.419,10.481c3.269,7.943,4.364,17.382-.11,19.233h0A3.674,3.674,0,0,1,348.041,1019.445Zm-10.7-31.055a1.486,1.486,0,0,0-.572.106c-2.264.936-2.264,8.095,1.12,16.271a33.093,33.093,0,0,0,5.974,9.807c1.9,2.014,3.678,2.954,4.728,2.513h0c2.264-.936,2.264-8.091-1.12-16.271a33.093,33.093,0,0,0-5.974-9.807c-1.59-1.688-3.089-2.623-4.16-2.623Z" transform="translate(-324.952 -636.79)" fill="#74a5d3"/>
      <path id="Path_19081" data-name="Path 19081" d="M317.65,1023.6a1.136,1.136,0,0,1-.433-2.182l30.646-12.667a1.136,1.136,0,0,1,.866,2.1l-30.646,12.667A1.133,1.133,0,0,1,317.65,1023.6Z" transform="translate(-315.249 -650.133)" fill="#74a5d3"/>
      <circle id="Ellipse_360" data-name="Ellipse 360" cx="6.231" cy="6.231" r="6.231" transform="translate(341.044 0.597)" fill="#bacfe2"/>
      <circle id="Ellipse_361" data-name="Ellipse 361" cx="6.231" cy="6.231" r="6.231" transform="translate(369.283 0.597)" fill="#bacfe2"/>
      <circle id="Ellipse_362" data-name="Ellipse 362" cx="6.231" cy="6.231" r="6.231" transform="translate(397.522 0.597)" fill="#bacfe2"/>
      <path id="Path_19082" data-name="Path 19082" d="M721.921,1277.245H318.647a1.136,1.136,0,1,1,0-2.268H721.921a1.136,1.136,0,1,1,0,2.268Z" transform="translate(-315.793 -807.613)" fill="#262424"/>
      <path id="Path_19083" data-name="Path 19083" d="M773.108,1315.485h-174.4a1.136,1.136,0,1,1,0-2.268h174.4a1.136,1.136,0,0,1,0,2.268Z" transform="translate(-481.417 -830.227)" fill="#262424"/>
      <path id="Path_19084" data-name="Path 19084" d="M493.316,1315.485H454.138a1.136,1.136,0,1,1,0-2.268h39.178a1.136,1.136,0,1,1,0,2.268Z" transform="translate(-395.92 -830.227)" fill="#262424"/>
      <path id="Path_19085" data-name="Path 19085" d="M1142.037,1315.488h-26.053a1.136,1.136,0,0,1,0-2.268h26.053a1.136,1.136,0,0,1,0,2.268Z" transform="translate(-787.407 -830.23)" fill="#262424"/>
    </g>
  </g>
</svg>
