<svg xmlns="http://www.w3.org/2000/svg" width="27.333" height="27.333" viewBox="0 0 27.333 27.333">
  <g id="whatsapp" transform="translate(0)">
    <path id="Path_212" data-name="Path 212" d="M23.451,3.882A13.167,13.167,0,0,0,14.078,0h0A13.257,13.257,0,0,0,2.3,19.334L.07,25.7a1.229,1.229,0,0,0,1.155,1.634,1.238,1.238,0,0,0,.409-.07L8,25.035A13.256,13.256,0,0,0,23.451,3.882ZM22.317,21.494A11.656,11.656,0,0,1,8.608,23.545a1.235,1.235,0,0,0-.985-.076L1.841,25.492l2.024-5.783a1.235,1.235,0,0,0-.077-.985A11.653,11.653,0,0,1,14.077,1.6h0a11.652,11.652,0,0,1,8.239,19.891Zm0,0" fill="#2374bb"/>
    <path id="Path_213" data-name="Path 213" d="M139.553,122.15a1.566,1.566,0,0,0-2.212,0l-.667.667a9.707,9.707,0,0,1-3.9-3.9l.667-.667a1.565,1.565,0,0,0,0-2.212l-1.8-1.8a1.566,1.566,0,0,0-2.212,0L128,115.68c-.824.824-.865,2.239-.116,3.987a17.5,17.5,0,0,0,8.045,8.045,5.8,5.8,0,0,0,2.238.533,2.383,2.383,0,0,0,1.749-.649l1.438-1.438h0a1.564,1.564,0,0,0,0-2.212Zm-.774,4.313c-.235.235-.958.317-2.221-.224a15.937,15.937,0,0,1-7.2-7.2c-.542-1.264-.459-1.986-.224-2.222l1.41-1.41,1.742,1.742-.835.835a1.223,1.223,0,0,0-.226,1.424,11.309,11.309,0,0,0,4.967,4.967,1.223,1.223,0,0,0,1.425-.226l.835-.835,1.742,1.742Zm0,0" transform="translate(-120.549 -107.711)" fill="#2374bb"/>
  </g>
</svg>
